<?xml version="1.0" encoding="UTF-8"?>
<svg version="1.1" xmlns="http://www.w3.org/2000/svg" width="225" height="225">
<path d="M0 0 C74.25 0 148.5 0 225 0 C225 74.25 225 148.5 225 225 C150.75 225 76.5 225 0 225 C0 150.75 0 76.5 0 0 Z " fill="#FBFBFC" transform="translate(0,0)"/>
<path d="M0 0 C3.54228793 2.80991616 6.78227595 5.82791743 10 9 C10.62390625 9.55171875 11.2478125 10.1034375 11.890625 10.671875 C23.39990037 21.14427871 30.29295634 37.39569417 31.1550293 52.76367188 C32.11597106 78.04535631 32.11597106 78.04535631 26 90 C25.45730469 91.1240625 24.91460937 92.248125 24.35546875 93.40625 C20.98887829 100.03303755 17.23764311 106.65179978 12 112 C11.34 112 10.68 112 10 112 C10 112.66 10 113.32 10 114 C2.77694299 120.48811957 -4.865503 125.61014417 -14 129 C-15.01320313 129.37898437 -16.02640625 129.75796875 -17.0703125 130.1484375 C-22.66247283 132.12461446 -28.04468937 133.76414611 -34 134 C-35.17304687 134.0515625 -36.34609375 134.103125 -37.5546875 134.15625 C-59.59540222 134.80656981 -77.44322782 127.42531653 -93.546875 112.51171875 C-100.88002331 105.00341562 -106.2765062 96.78786053 -110 87 C-110.391875 86.10925781 -110.78375 85.21851563 -111.1875 84.30078125 C-117.46947869 67.96327418 -115.5677405 47.93541248 -109 32 C-100.76394721 13.67251989 -85.9156476 -0.77369937 -67.1015625 -7.96875 C-44.11193557 -15.61265618 -20.3354398 -13.53890799 0 0 Z " fill="#FCFBFC" transform="translate(154,52)"/>
<path d="M0 0 C0.99 0 1.98 0 3 0 C3 16.83 3 33.66 3 51 C3.66 51 4.32 51 5 51 C5 38.46 5 25.92 5 13 C5.66 13 6.32 13 7 13 C7.07411371 18.49923749 7.12858464 23.99818479 7.16479492 29.49780273 C7.17988873 31.36894799 7.20036589 33.24005783 7.22631836 35.11108398 C7.26267593 37.79940526 7.27972015 40.48725913 7.29296875 43.17578125 C7.30845261 44.01337479 7.32393646 44.85096832 7.33988953 45.71394348 C7.34161028 51.64171481 7.34161028 51.64171481 5.49702454 53.57633972 C5.00300644 54.04614761 4.50898834 54.51595551 4 55 C3.63729516 57.74243563 3.63729516 57.74243563 3.8125 60.6875 C3.83957031 61.68136719 3.86664063 62.67523438 3.89453125 63.69921875 C3.94673828 64.83810547 3.94673828 64.83810547 4 66 C6.42641677 64.30066282 7.82774758 62.89765419 8.3963623 59.93444824 C8.55993697 57.27893031 8.60590408 54.64498103 8.609375 51.984375 C8.62591125 51.01340881 8.64244751 50.04244263 8.65948486 49.04205322 C8.70802119 45.94463817 8.72934857 42.84771427 8.75 39.75 C8.77815493 37.64841271 8.80808168 35.54684836 8.83984375 33.4453125 C8.9137819 28.29691542 8.96332229 23.14879192 9 18 C14.18001868 20.52078255 14.18001868 20.52078255 16 23 C16.35644531 25.60375977 16.35644531 25.60375977 16.328125 28.69140625 C16.32296875 29.80064453 16.3178125 30.90988281 16.3125 32.05273438 C16.291875 33.21095703 16.27125 34.36917969 16.25 35.5625 C16.24484375 36.72458984 16.2396875 37.88667969 16.234375 39.08398438 C16.15425867 47.69148266 16.15425867 47.69148266 15 50 C14.34 50 13.68 50 13 50 C13.03222656 50.845625 13.06445312 51.69125 13.09765625 52.5625 C13.00331936 61.78655149 13.00331936 61.78655149 9.9296875 65.50390625 C7.4375 67.5625 7.4375 67.5625 4.93359375 69.31640625 C3.97646484 70.14978516 3.97646484 70.14978516 3 71 C3 72.32 3 73.64 3 75 C6.99186653 73.20329782 10.10584844 71.3161119 13 68 C13.68795209 64.38374921 13.92703068 61.25257787 13.80053711 57.59960938 C13.7421875 55.546875 13.7421875 55.546875 14 52 C16.0078125 50.015625 16.0078125 50.015625 18 49 C20.0661802 51.49366576 21.90662125 53.82542234 23.4375 56.6875 C25.31818 59.4709064 26.83189603 60.05813125 30 61 C30 62.32 30 63.64 30 65 C31.65 65.33 33.3 65.66 35 66 C35 77.22 35 88.44 35 100 C34.34 100 33.68 100 33 100 C33 100.99 33 101.98 33 103 C35.64 103 38.28 103 41 103 C41 108.94 41 114.88 41 121 C39.515 121 38.03 121 36.5 121 C27.27828263 121.78048389 18.58749831 126.94166779 11 132 C-0.85415229 133.83785307 -9.54951231 131.72698095 -19.83374023 125.64550781 C-26.00974207 122.0701642 -30.85201144 121.2676936 -38 121 C-38 115.06 -38 109.12 -38 103 C-33.05 102.505 -33.05 102.505 -28 102 C-29.32 101.34 -30.64 100.68 -32 100 C-32 89.11 -32 78.22 -32 67 C-30.02 66.01 -30.02 66.01 -28 65 C-27.34 65.33 -26.68 65.66 -26 66 C-26 64.02 -26 62.04 -26 60 C-25.401875 59.938125 -24.80375 59.87625 -24.1875 59.8125 C-21.10421892 58.66728131 -20.60559689 56.82585053 -19 54 C-17.37163262 52.2958946 -15.71230248 50.61974559 -14 49 C-12.01171875 50.5078125 -12.01171875 50.5078125 -10 53 C-9.78420986 55.7103241 -9.73331027 58.17823528 -9.8125 60.875 C-9.77315709 66.56644541 -9.77315709 66.56644541 -6.9453125 71.3828125 C-4.67429323 72.84730156 -2.51667856 74.02383377 0 75 C0.02649583 72.75145037 0.02649583 72.75145037 -1 70 C-2.13771341 68.9315927 -3.30965175 67.8991712 -4.50219727 66.89233398 C-8.02313459 63.45500242 -8.82426779 61.11542921 -8.94554138 56.26075745 C-8.93128616 55.44380905 -8.91703094 54.62686066 -8.90234375 53.78515625 C-8.91463516 52.92941513 -8.92692657 52.07367401 -8.93959045 51.19200134 C-8.97117152 48.48128027 -8.95508853 45.77330272 -8.9375 43.0625 C-8.95061788 41.21546966 -8.96686218 39.36845872 -8.98632812 37.52148438 C-9.03289418 33.0126756 -9.01488676 28.51068868 -9 24 C-9.33 32.58 -9.66 41.16 -10 50 C-10.99 49.34 -11.98 48.68 -13 48 C-13.75067352 43.94027645 -13.60196504 39.80845415 -13.625 35.6875 C-13.67011719 34.54603516 -13.71523437 33.40457031 -13.76171875 32.22851562 C-13.77074219 31.12572266 -13.77976562 30.02292969 -13.7890625 28.88671875 C-13.80662598 27.87826904 -13.82418945 26.86981934 -13.84228516 25.83081055 C-12.59162614 21.62750873 -9.65975784 20.15858634 -6 18 C-5.99589111 19.31194336 -5.99178223 20.62388672 -5.98754883 21.97558594 C-5.96577477 26.84382398 -5.91150268 31.71125179 -5.84741211 36.57910156 C-5.82421709 38.6857934 -5.80983288 40.79260144 -5.80444336 42.89941406 C-5.79516491 45.92847233 -5.75419823 48.95569904 -5.70703125 51.984375 C-5.7109639 52.92617615 -5.71489655 53.86797729 -5.71894836 54.83831787 C-5.66681426 60.31877359 -5.66681426 60.31877359 -2.45581055 64.62597656 C-1.64539307 65.0794043 -0.83497559 65.53283203 0 66 C-0.0868748 64.04082341 -0.19504512 62.08258129 -0.3125 60.125 C-0.37050781 59.03445312 -0.42851563 57.94390625 -0.48828125 56.8203125 C-0.74158203 55.42425781 -0.74158203 55.42425781 -1 54 C-1.99 53.34 -2.98 52.68 -4 52 C-4.266487 48.94924916 -4.34757146 46.10373821 -4.29296875 43.0546875 C-4.28872391 42.1696756 -4.28447906 41.2846637 -4.28010559 40.37283325 C-4.26328259 37.53991555 -4.22562425 34.70770348 -4.1875 31.875 C-4.17245782 29.95704151 -4.15876861 28.03907189 -4.14648438 26.12109375 C-4.11336727 21.41378969 -4.06156055 16.70701456 -4 12 C-3.01 12 -2.02 12 -1 12 C-0.67 8.04 -0.34 4.08 0 0 Z " fill="#433E73" transform="translate(111,44)"/>
<path d="M0 0 C3.28495339 2.18996893 4.53439523 4.09096212 6.3125 7.5625 C8.28307298 10.40888319 9.73535101 11.02942868 13 12 C13 13.32 13 14.64 13 16 C14.65 16.33 16.3 16.66 18 17 C18 28.22 18 39.44 18 51 C17.34 51 16.68 51 16 51 C16 51.99 16 52.98 16 54 C18.64 54 21.28 54 24 54 C24 59.94 24 65.88 24 72 C22.515 72 21.03 72 19.5 72 C10.27828263 72.78048389 1.58749831 77.94166779 -6 83 C-17.85415229 84.83785307 -26.54951231 82.72698095 -36.83374023 76.64550781 C-43.00974207 73.0701642 -47.85201144 72.2676936 -55 72 C-55 66.06 -55 60.12 -55 54 C-50.05 53.505 -50.05 53.505 -45 53 C-46.32 52.34 -47.64 51.68 -49 51 C-49 40.11 -49 29.22 -49 18 C-47.68 17.34 -46.36 16.68 -45 16 C-44.34 16.33 -43.68 16.66 -43 17 C-43 15.02 -43 13.04 -43 11 C-42.360625 10.896875 -41.72125 10.79375 -41.0625 10.6875 C-40.381875 10.460625 -39.70125 10.23375 -39 10 C-38.67 9.01 -38.34 8.02 -38 7 C-37.34 7 -36.68 7 -36 7 C-36 15.91 -36 24.82 -36 34 C-34.02 34.66 -32.04 35.32 -30 36 C-28.01914938 36.99818321 -26.05953415 38.03977352 -24.125 39.125 C-23.15820312 39.66382813 -22.19140625 40.20265625 -21.1953125 40.7578125 C-20.47085938 41.16773438 -19.74640625 41.57765625 -19 42 C-19 42.66 -19 43.32 -19 44 C-23.05669684 43.26427664 -26.55076652 41.35372904 -30.1875 39.5 C-30.82880859 39.17902344 -31.47011719 38.85804688 -32.13085938 38.52734375 C-36.85939166 36.14060834 -36.85939166 36.14060834 -38 35 C-38.08700342 33.36527118 -38.10701063 31.72685945 -38.09765625 30.08984375 C-38.09443359 29.10048828 -38.09121094 28.11113281 -38.08789062 27.09179688 C-38.07951172 26.05087891 -38.07113281 25.00996094 -38.0625 23.9375 C-38.05798828 22.89271484 -38.05347656 21.84792969 -38.04882812 20.77148438 C-38.03699913 18.1809334 -38.02051689 15.59049441 -38 13 C-38.66 13 -39.32 13 -40 13 C-40 22.24 -40 31.48 -40 41 C-38.02 41.66 -36.04 42.32 -34 43 C-32.62930473 43.55444203 -31.26612234 44.12810978 -29.9140625 44.7265625 C-29.21152344 45.0359375 -28.50898437 45.3453125 -27.78515625 45.6640625 C-26.71587891 46.13972656 -26.71587891 46.13972656 -25.625 46.625 C-24.88894531 46.94984375 -24.15289062 47.2746875 -23.39453125 47.609375 C-21.59529031 48.40384503 -19.79749504 49.20158771 -18 50 C-18 50.99 -18 51.98 -18 53 C-23.11213229 52.42231322 -27.06850019 50.7908281 -31.625 48.5625 C-32.27984375 48.24990234 -32.9346875 47.93730469 -33.609375 47.61523438 C-36.75601956 46.10879422 -39.87962796 44.56018602 -43 43 C-43.33 35.08 -43.66 27.16 -44 19 C-44.33 28.9 -44.66 38.8 -45 49 C-42.03 49.99 -39.06 50.98 -36 52 C-33.43565675 53.1868665 -30.9375564 54.38442381 -28.4375 55.6875 C-27.81037109 56.00783203 -27.18324219 56.32816406 -26.53710938 56.65820312 C-25.02185205 57.43318206 -23.51048128 58.21575296 -22 59 C-22 60.32 -22 61.64 -22 63 C-19.69 63.33 -17.38 63.66 -15 64 C-15 63.34 -15 62.68 -15 62 C10.70967742 49 10.70967742 49 14 49 C13.505 45.535 13.505 45.535 13 42 C12.18015625 42.45632812 11.3603125 42.91265625 10.515625 43.3828125 C9.43796875 43.95773438 8.3603125 44.53265625 7.25 45.125 C6.18265625 45.70507812 5.1153125 46.28515625 4.015625 46.8828125 C3.02046875 47.25148437 2.0253125 47.62015625 1 48 C-0.32 47.34 -1.64 46.68 -3 46 C0.96 44.02 4.92 42.04 9 40 C9.33 31.09 9.66 22.18 10 13 C9.01 13 8.02 13 7 13 C7 20.26 7 27.52 7 35 C6.01 34.505 6.01 34.505 5 34 C5 25.09 5 16.18 5 7 C4.34 7 3.68 7 3 7 C3.07855225 7.589021 3.15710449 8.17804199 3.23803711 8.78491211 C5.14068513 25.17658607 5.14068513 25.17658607 1.57617188 29.87792969 C-2.98613811 33.70938419 -8.97694524 37 -15 37 C-15 36.34 -15 35.68 -15 35 C-13.9171875 34.55269531 -12.834375 34.10539062 -11.71875 33.64453125 C-7.20626418 31.7708978 -3.02989766 29.96650284 0 26 C1.81452597 19.29186585 0.97051979 12.14187829 0.23803711 5.30908203 C0 3 0 3 0 0 Z " fill="#F0D7DB" transform="translate(128,93)"/>
<path d="M0 0 C0.99 0 1.98 0 3 0 C3 16.83 3 33.66 3 51 C3.66 51 4.32 51 5 51 C5 38.46 5 25.92 5 13 C5.66 13 6.32 13 7 13 C7.07411371 18.49923749 7.12858464 23.99818479 7.16479492 29.49780273 C7.17988873 31.36894799 7.20036589 33.24005783 7.22631836 35.11108398 C7.26267593 37.79940526 7.27972015 40.48725913 7.29296875 43.17578125 C7.30845261 44.01337479 7.32393646 44.85096832 7.33988953 45.71394348 C7.34161028 51.64171481 7.34161028 51.64171481 5.49702454 53.57633972 C5.00300644 54.04614761 4.50898834 54.51595551 4 55 C3.63729516 57.74243563 3.63729516 57.74243563 3.8125 60.6875 C3.83957031 61.68136719 3.86664063 62.67523438 3.89453125 63.69921875 C3.94673828 64.83810547 3.94673828 64.83810547 4 66 C6.42641677 64.30066282 7.82774758 62.89765419 8.3963623 59.93444824 C8.55993697 57.27893031 8.60590408 54.64498103 8.609375 51.984375 C8.62591125 51.01340881 8.64244751 50.04244263 8.65948486 49.04205322 C8.70802119 45.94463817 8.72934857 42.84771427 8.75 39.75 C8.77815493 37.64841271 8.80808168 35.54684836 8.83984375 33.4453125 C8.9137819 28.29691542 8.96332229 23.14879192 9 18 C14.18001868 20.52078255 14.18001868 20.52078255 16 23 C16.35644531 25.60375977 16.35644531 25.60375977 16.328125 28.69140625 C16.32296875 29.80064453 16.3178125 30.90988281 16.3125 32.05273438 C16.291875 33.21095703 16.27125 34.36917969 16.25 35.5625 C16.24484375 36.72458984 16.2396875 37.88667969 16.234375 39.08398438 C16.15425867 47.69148266 16.15425867 47.69148266 15 50 C14.34 50 13.68 50 13 50 C13.03222656 50.845625 13.06445312 51.69125 13.09765625 52.5625 C13.00331936 61.78655149 13.00331936 61.78655149 9.9296875 65.50390625 C7.4375 67.5625 7.4375 67.5625 4.93359375 69.31640625 C4.29550781 69.87199219 3.65742187 70.42757812 3 71 C3 72.32 3 73.64 3 75 C6.99358311 73.20252521 10.10402855 71.31675362 13 68 C14.18560576 63.85628104 14.0175415 59.62446991 13.9375 55.3515625 C13.958125 54.24554688 13.97875 53.13953125 14 52 C14.99 51.505 14.99 51.505 16 51 C17.526591 67.9790843 17.526591 67.9790843 13.94921875 72.71484375 C11.35871047 74.4687138 8.86792328 75.7607222 6 77 C4.32220779 77.98121917 2.6520472 78.9760284 1 80 C0.24074219 79.44570312 -0.51851562 78.89140625 -1.30078125 78.3203125 C-2.79158203 77.23363281 -2.79158203 77.23363281 -4.3125 76.125 C-5.29863281 75.40570313 -6.28476563 74.68640625 -7.30078125 73.9453125 C-9.17523115 72.5944065 -11.07752993 71.28164671 -13 70 C-13.34057617 68.02880859 -13.34057617 68.02880859 -13.29296875 65.6484375 C-13.28330078 64.79765625 -13.27363281 63.946875 -13.26367188 63.0703125 C-13.23853516 62.18085937 -13.21339844 61.29140625 -13.1875 60.375 C-13.17396484 59.4778125 -13.16042969 58.580625 -13.14648438 57.65625 C-13.11106925 55.43690211 -13.06168461 53.21874812 -13 51 C-12.01 51.66 -11.02 52.32 -10 53 C-9.85315028 55.61979894 -9.83033661 58.1344183 -9.875 60.75 C-9.79984031 66.51141476 -9.79984031 66.51141476 -6.94140625 71.390625 C-4.67179126 72.8494103 -2.51286167 74.02531426 0 75 C0.02649583 72.75145037 0.02649583 72.75145037 -1 70 C-2.13771341 68.9315927 -3.30965175 67.8991712 -4.50219727 66.89233398 C-8.02313459 63.45500242 -8.82426779 61.11542921 -8.94554138 56.26075745 C-8.93128616 55.44380905 -8.91703094 54.62686066 -8.90234375 53.78515625 C-8.91463516 52.92941513 -8.92692657 52.07367401 -8.93959045 51.19200134 C-8.97117152 48.48128027 -8.95508853 45.77330272 -8.9375 43.0625 C-8.95061788 41.21546966 -8.96686218 39.36845872 -8.98632812 37.52148438 C-9.03289418 33.0126756 -9.01488676 28.51068868 -9 24 C-9.33 32.58 -9.66 41.16 -10 50 C-10.99 49.34 -11.98 48.68 -13 48 C-13.75067352 43.94027645 -13.60196504 39.80845415 -13.625 35.6875 C-13.67011719 34.54603516 -13.71523437 33.40457031 -13.76171875 32.22851562 C-13.77074219 31.12572266 -13.77976562 30.02292969 -13.7890625 28.88671875 C-13.80662598 27.87826904 -13.82418945 26.86981934 -13.84228516 25.83081055 C-12.59162614 21.62750873 -9.65975784 20.15858634 -6 18 C-5.99589111 19.31194336 -5.99178223 20.62388672 -5.98754883 21.97558594 C-5.96577477 26.84382398 -5.91150268 31.71125179 -5.84741211 36.57910156 C-5.82421709 38.6857934 -5.80983288 40.79260144 -5.80444336 42.89941406 C-5.79516491 45.92847233 -5.75419823 48.95569904 -5.70703125 51.984375 C-5.7109639 52.92617615 -5.71489655 53.86797729 -5.71894836 54.83831787 C-5.66681426 60.31877359 -5.66681426 60.31877359 -2.45581055 64.62597656 C-1.64539307 65.0794043 -0.83497559 65.53283203 0 66 C-0.0868748 64.04082341 -0.19504512 62.08258129 -0.3125 60.125 C-0.39951172 58.48917969 -0.39951172 58.48917969 -0.48828125 56.8203125 C-0.74158203 55.42425781 -0.74158203 55.42425781 -1 54 C-1.99 53.34 -2.98 52.68 -4 52 C-4.266487 48.94924916 -4.34757146 46.10373821 -4.29296875 43.0546875 C-4.28872391 42.1696756 -4.28447906 41.2846637 -4.28010559 40.37283325 C-4.26328259 37.53991555 -4.22562425 34.70770348 -4.1875 31.875 C-4.17245782 29.95704151 -4.15876861 28.03907189 -4.14648438 26.12109375 C-4.11336727 21.41378969 -4.06156055 16.70701456 -4 12 C-3.01 12 -2.02 12 -1 12 C-0.67 8.04 -0.34 4.08 0 0 Z " fill="#D35749" transform="translate(111,44)"/>
<path d="M0 0 C7.14836375 -0.43388079 11.79304158 0.69976704 18.1875 3.8125 C18.95513672 4.16892578 19.72277344 4.52535156 20.51367188 4.89257812 C23.7795796 6.41778781 26.96619752 7.98108418 30.11328125 9.7421875 C33.59516014 11.25932553 36.21420244 11.36646422 40 11.3125 C41.7634375 11.30669922 41.7634375 11.30669922 43.5625 11.30078125 C47.00275637 10.99975882 49.78543405 10.22996349 53 9 C53.495 10.485 53.495 10.485 54 12 C53.34 12.33 52.68 12.66 52 13 C52.185625 13.78375 52.37125 14.5675 52.5625 15.375 C53 18 53 18 52 20 C52.391875 19.484375 52.78375 18.96875 53.1875 18.4375 C53.785625 17.963125 54.38375 17.48875 55 17 C57.6875 17.3125 57.6875 17.3125 60 18 C60 18.66 60 19.32 60 20 C60.66 20.33 61.32 20.66 62 21 C52.92353997 27.2861702 44.531676 30.09089718 33.45605469 28.58203125 C27.95781294 27.2790682 23.00186761 24.50228552 18.16381836 21.64672852 C11.99139288 18.06652915 7.14623081 17.26762777 0 17 C0 11.39 0 5.78 0 0 Z " fill="#C84534" transform="translate(73,148)"/>
<path d="M0 0 C0.92941406 0.45890625 1.85882813 0.9178125 2.81640625 1.390625 C20.88542435 11.09653824 33.02649391 26.91585993 40.10546875 45.9765625 C45.04435095 63.55249071 43.49132401 84.81685977 35 101 C34.54109375 101.91136719 34.0821875 102.82273437 33.609375 103.76171875 C24.21431161 121.20643596 9.01278982 134.05253183 -10 140 C-17.6455817 142.01024181 -25.05991893 142.33543996 -32.9375 142.3125 C-34.59168945 142.33666992 -34.59168945 142.33666992 -36.27929688 142.36132812 C-46.8521928 142.36756582 -55.83834845 140.06111919 -65.1875 135.1875 C-66.22028076 134.65648682 -66.22028076 134.65648682 -67.27392578 134.11474609 C-72.24765771 131.50574935 -76.81121902 128.77255961 -81 125 C-82.17755859 123.95972656 -82.17755859 123.95972656 -83.37890625 122.8984375 C-94.18252615 112.77107472 -100.89537538 101.21096928 -105 87 C-105.24492188 86.1853125 -105.48984375 85.370625 -105.7421875 84.53125 C-110.56619536 65.23521855 -105.95438746 44.78582983 -96 28 C-94.15036389 25.18194398 -92.16439015 22.58084462 -90 20 C-89.57589844 19.4328125 -89.15179688 18.865625 -88.71484375 18.28125 C-81.334705 8.81401662 -70.74035562 2.89633859 -60 -2 C-58.3603125 -2.86625 -58.3603125 -2.86625 -56.6875 -3.75 C-38.91772202 -9.77365355 -16.79697747 -8.38487692 0 0 Z M-87.71484375 19.265625 C-99.33667347 33.17208791 -105.6093773 50.1346364 -105.5 68.1875 C-105.49500488 69.27885254 -105.49000977 70.37020508 -105.48486328 71.49462891 C-105.07197261 90.7751994 -96.85304325 106.86267057 -83.46484375 120.6015625 C-67.99269047 135.33906678 -50.19271418 141.45984279 -28.984375 141.14453125 C-11.43382677 140.50789372 6.22062915 133.08859405 19 121 C19 120.34 19 119.68 19 119 C19.66 119 20.32 119 21 119 C36.76791009 102.02169018 40.79829172 82.49740981 40.13916016 60.03173828 C39.305784 41.87583461 30.79604598 27.35225248 18 15 C17.29359375 14.26265625 16.5871875 13.5253125 15.859375 12.765625 C3.75275567 0.84383956 -14.3123841 -5.30776301 -31 -5.4375 C-53.21820667 -5.15987679 -72.34245614 3.16836058 -87.71484375 19.265625 Z " fill="#373063" transform="translate(145,45)"/>
<path d="M0 0 C3.28495339 2.18996893 4.53439523 4.09096212 6.3125 7.5625 C8.28307298 10.40888319 9.73535101 11.02942868 13 12 C13 13.32 13 14.64 13 16 C14.65 16.33 16.3 16.66 18 17 C18 28.22 18 39.44 18 51 C13.66875 53.145 9.3375 55.29 4.875 57.5 C3.52003418 58.17869141 2.16506836 58.85738281 0.76904297 59.55664062 C-0.31231934 60.08451172 -1.39368164 60.61238281 -2.5078125 61.15625 C-3.60754395 61.70087891 -4.70727539 62.24550781 -5.84033203 62.80664062 C-9.13763432 64.05198243 -11.50889731 64.23917963 -15 64 C-15 63.34 -15 62.68 -15 62 C10.70967742 49 10.70967742 49 14 49 C13.67 46.69 13.34 44.38 13 42 C11.77023438 42.68449219 11.77023438 42.68449219 10.515625 43.3828125 C9.43796875 43.95773438 8.3603125 44.53265625 7.25 45.125 C6.18265625 45.70507812 5.1153125 46.28515625 4.015625 46.8828125 C3.02046875 47.25148437 2.0253125 47.62015625 1 48 C-0.32 47.34 -1.64 46.68 -3 46 C0.96 44.02 4.92 42.04 9 40 C9.33 31.09 9.66 22.18 10 13 C9.01 13 8.02 13 7 13 C7 20.26 7 27.52 7 35 C6.34 34.67 5.68 34.34 5 34 C5 25.09 5 16.18 5 7 C4.34 7 3.68 7 3 7 C3.07855225 7.589021 3.15710449 8.17804199 3.23803711 8.78491211 C5.14068513 25.17658607 5.14068513 25.17658607 1.57617188 29.87792969 C-2.98613811 33.70938419 -8.97694524 37 -15 37 C-15 36.34 -15 35.68 -15 35 C-13.9171875 34.55269531 -12.834375 34.10539062 -11.71875 33.64453125 C-7.20626418 31.7708978 -3.02989766 29.96650284 0 26 C1.81452597 19.29186585 0.97051979 12.14187829 0.23803711 5.30908203 C0 3 0 3 0 0 Z " fill="#2F2965" transform="translate(128,93)"/>
<path d="M0 0 C0.66 0 1.32 0 2 0 C2 8.91 2 17.82 2 27 C3.98 27.66 5.96 28.32 8 29 C9.98085062 29.99818321 11.94046585 31.03977352 13.875 32.125 C14.84179688 32.66382813 15.80859375 33.20265625 16.8046875 33.7578125 C17.52914062 34.16773438 18.25359375 34.57765625 19 35 C19 35.66 19 36.32 19 37 C14.94330316 36.26427664 11.44923348 34.35372904 7.8125 32.5 C7.17119141 32.17902344 6.52988281 31.85804688 5.86914062 31.52734375 C1.14060834 29.14060834 1.14060834 29.14060834 0 28 C-0.08700342 26.36527118 -0.10701063 24.72685945 -0.09765625 23.08984375 C-0.09443359 22.10048828 -0.09121094 21.11113281 -0.08789062 20.09179688 C-0.07951172 19.05087891 -0.07113281 18.00996094 -0.0625 16.9375 C-0.05798828 15.89271484 -0.05347656 14.84792969 -0.04882812 13.77148438 C-0.03699913 11.1809334 -0.02051689 8.59049441 0 6 C-0.66 6 -1.32 6 -2 6 C-2 15.24 -2 24.48 -2 34 C-0.02 34.66 1.96 35.32 4 36 C5.37069527 36.55444203 6.73387766 37.12810978 8.0859375 37.7265625 C8.78847656 38.0359375 9.49101563 38.3453125 10.21484375 38.6640625 C11.28412109 39.13972656 11.28412109 39.13972656 12.375 39.625 C13.11105469 39.94984375 13.84710938 40.2746875 14.60546875 40.609375 C16.40470969 41.40384503 18.20250496 42.20158771 20 43 C20 43.99 20 44.98 20 46 C14.88786771 45.42231322 10.93149981 43.7908281 6.375 41.5625 C5.72015625 41.24990234 5.0653125 40.93730469 4.390625 40.61523438 C1.24398044 39.10879422 -1.87962796 37.56018602 -5 36 C-5.33 28.08 -5.66 20.16 -6 12 C-6.33 21.9 -6.66 31.8 -7 42 C-4.03 42.99 -1.06 43.98 2 45 C4.56434325 46.1868665 7.0624436 47.38442381 9.5625 48.6875 C10.18962891 49.00783203 10.81675781 49.32816406 11.46289062 49.65820312 C12.97814795 50.43318206 14.48951872 51.21575296 16 52 C15.67 52.99 15.34 53.98 15 55 C11.30090527 54.39458825 8.28645598 53.34742345 4.91796875 51.71484375 C4.0777417 51.31128662 3.23751465 50.90772949 2.37182617 50.49194336 C1.32099854 49.97897705 0.2701709 49.46601074 -0.8125 48.9375 C-4.174375 47.308125 -7.53625 45.67875 -11 44 C-11 33.11 -11 22.22 -11 11 C-9.68 10.34 -8.36 9.68 -7 9 C-6.34 9.33 -5.68 9.66 -5 10 C-5 8.02 -5 6.04 -5 4 C-4.360625 3.896875 -3.72125 3.79375 -3.0625 3.6875 C-2.381875 3.460625 -1.70125 3.23375 -1 3 C-0.67 2.01 -0.34 1.02 0 0 Z " fill="#3A376C" transform="translate(90,100)"/>
<path d="M0 0 C0.99 0 1.98 0 3 0 C3 16.83 3 33.66 3 51 C3.66 51 4.32 51 5 51 C5 38.46 5 25.92 5 13 C5.66 13 6.32 13 7 13 C7.07411371 18.49923749 7.12858464 23.99818479 7.16479492 29.49780273 C7.17988873 31.36894799 7.20036589 33.24005783 7.22631836 35.11108398 C7.26267593 37.79940526 7.27972015 40.48725913 7.29296875 43.17578125 C7.30845261 44.01337479 7.32393646 44.85096832 7.33988953 45.71394348 C7.34160933 51.63842674 7.34160933 51.63842674 5.51069641 53.57633972 C5.0121666 54.04614761 4.51363678 54.51595551 4 55 C3.42224116 57.73230305 3.42224116 57.73230305 3.3125 60.6875 C3.24675781 61.68136719 3.18101563 62.67523438 3.11328125 63.69921875 C3.07589844 64.45847656 3.03851563 65.21773438 3 66 C1.02 66.495 1.02 66.495 -1 67 C-0.96519531 66.08476563 -0.93039063 65.16953125 -0.89453125 64.2265625 C-0.86746094 63.03804687 -0.84039062 61.84953125 -0.8125 60.625 C-0.77769531 59.44164062 -0.74289063 58.25828125 -0.70703125 57.0390625 C-0.80371094 56.03617188 -0.90039062 55.03328125 -1 54 C-1.99 53.34 -2.98 52.68 -4 52 C-4.266487 48.94924916 -4.34757146 46.10373821 -4.29296875 43.0546875 C-4.28872391 42.1696756 -4.28447906 41.2846637 -4.28010559 40.37283325 C-4.26328259 37.53991555 -4.22562425 34.70770348 -4.1875 31.875 C-4.17245782 29.95704151 -4.15876861 28.03907189 -4.14648438 26.12109375 C-4.11336727 21.41378969 -4.06156055 16.70701456 -4 12 C-3.01 12 -2.02 12 -1 12 C-0.67 8.04 -0.34 4.08 0 0 Z " fill="#CD5547" transform="translate(111,44)"/>
<path d="M0 0 C9.62861565 -1.37551652 16.82290438 3.50510572 25 8 C24.35546875 8.22429687 23.7109375 8.44859375 23.046875 8.6796875 C20.75611148 9.82889456 20.75611148 9.82889456 20.390625 12.3828125 C20.32101563 13.74019531 20.32101563 13.74019531 20.25 15.125 C20.19328125 16.03507812 20.1365625 16.94515625 20.078125 17.8828125 C20.05234375 18.58148438 20.0265625 19.28015625 20 20 C18.741875 19.690625 17.48375 19.38125 16.1875 19.0625 C10.81430668 17.85609832 5.48670922 17.41671209 0 17 C0 11.39 0 5.78 0 0 Z " fill="#DF3B2E" transform="translate(73,148)"/>
<path d="M0 0 C0.99 0.33 1.98 0.66 3 1 C3 1.66 3 2.32 3 3 C2.01 3.495 2.01 3.495 1 4 C1.185625 4.78375 1.37125 5.5675 1.5625 6.375 C2 9 2 9 1 11 C1.391875 10.484375 1.78375 9.96875 2.1875 9.4375 C2.785625 8.963125 3.38375 8.48875 4 8 C6.6875 8.3125 6.6875 8.3125 9 9 C9 9.66 9 10.32 9 11 C9.66 11.33 10.32 11.66 11 12 C9.04414675 13.00484204 7.08523763 14.00373805 5.125 15 C4.03445312 15.556875 2.94390625 16.11375 1.8203125 16.6875 C-1 18 -1 18 -3 18 C-3 17.34 -3 16.68 -3 16 C-2.01 16 -1.02 16 0 16 C0 12.37 0 8.74 0 5 C-0.66 5 -1.32 5 -2 5 C-2 7.31 -2 9.62 -2 12 C-2.61875 11.195625 -3.2375 10.39125 -3.875 9.5625 C-5.74164041 6.96125481 -5.74164041 6.96125481 -8 6 C-8.33 9.3 -8.66 12.6 -9 16 C-7.35 16.33 -5.7 16.66 -4 17 C-4 17.33 -4 17.66 -4 18 C-7.63 18 -11.26 18 -15 18 C-15.33 17.34 -15.66 16.68 -16 16 C-15.34 16 -14.68 16 -14 16 C-14 12.37 -14 8.74 -14 5 C-14.66 5 -15.32 5 -16 5 C-16 7.31 -16 9.62 -16 12 C-18.0245738 10.06745228 -19.42105792 8.36841312 -21 6 C-21.66 6 -22.32 6 -23 6 C-23.33 8.64 -23.66 11.28 -24 14 C-26.0625 13.0625 -26.0625 13.0625 -28 11 C-27.97045898 8.82983398 -27.97045898 8.82983398 -27.62109375 6.37109375 C-27.51079834 5.55439209 -27.40050293 4.73769043 -27.28686523 3.89624023 C-27.19219971 3.27048096 -27.09753418 2.64472168 -27 2 C-26.32420898 2.01047363 -25.64841797 2.02094727 -24.95214844 2.03173828 C-21.88480358 2.07335976 -18.81751822 2.09934573 -15.75 2.125 C-14.68652344 2.14175781 -13.62304688 2.15851563 -12.52734375 2.17578125 C-10.99013672 2.18544922 -10.99013672 2.18544922 -9.421875 2.1953125 C-8.00793457 2.21102295 -8.00793457 2.21102295 -6.56542969 2.22705078 C-3.87795273 1.98919833 -2.37526277 1.18888615 0 0 Z " fill="#CA3D29" transform="translate(124,157)"/>
<path d="M0 0 C3.3072948 2.2048632 4.5530745 4.1467786 6.375 7.625 C7.92274279 10.45081339 7.92274279 10.45081339 12 11 C12 21.56 12 32.12 12 43 C6.555 45.475 6.555 45.475 1 48 C-0.32 47.34 -1.64 46.68 -3 46 C0.96 44.02 4.92 42.04 9 40 C9.33 31.09 9.66 22.18 10 13 C9.01 13 8.02 13 7 13 C7 20.26 7 27.52 7 35 C6.34 34.67 5.68 34.34 5 34 C5 25.09 5 16.18 5 7 C4.34 7 3.68 7 3 7 C3.07855225 7.589021 3.15710449 8.17804199 3.23803711 8.78491211 C5.14068513 25.17658607 5.14068513 25.17658607 1.57617188 29.87792969 C-2.98613811 33.70938419 -8.97694524 37 -15 37 C-15 36.34 -15 35.68 -15 35 C-13.9171875 34.55269531 -12.834375 34.10539062 -11.71875 33.64453125 C-7.20626418 31.7708978 -3.02989766 29.96650284 0 26 C1.81452597 19.29186585 0.97051979 12.14187829 0.23803711 5.30908203 C0 3 0 3 0 0 Z " fill="#25205B" transform="translate(128,93)"/>
<path d="M0 0 C0.92941406 0.45890625 1.85882813 0.9178125 2.81640625 1.390625 C20.90122068 11.10502336 33.14290754 26.99328842 40.140625 46.1171875 C42.82437631 55.705499 41.85811887 65.2091739 41 75 C40.67 75 40.34 75 40 75 C39.96261719 73.86304687 39.92523438 72.72609375 39.88671875 71.5546875 C38.98731405 48.66845058 33.6519873 31.05991664 17 15 C16.36707031 14.33613281 15.73414063 13.67226563 15.08203125 12.98828125 C3.28763388 1.40217346 -15.01621438 -4.31213353 -31.125 -4.375 C-37.85718523 -4.31032841 -44.29986285 -3.75272269 -50.8828125 -2.2421875 C-51.93082031 -2.12230469 -51.93082031 -2.12230469 -53 -2 C-53.66 -2.66 -54.32 -3.32 -55 -4 C-36.96403941 -8.91889834 -16.9666572 -8.46957928 0 0 Z " fill="#373160" transform="translate(145,45)"/>
<path d="M0 0 C0.99 0.495 0.99 0.495 2 1 C2 8.92 2 16.84 2 25 C4.97 25.99 7.94 26.98 11 28 C13.2674746 28.98140696 15.51981156 29.99908088 17.75 31.0625 C21.46495502 32.82575763 25.16438171 34.51547366 29 36 C29 38.31 29 40.62 29 43 C25.08165565 42.37143878 21.85451551 41.16760882 18.26171875 39.49609375 C17.29967529 39.05193115 16.33763184 38.60776855 15.34643555 38.15014648 C14.13898682 37.58497314 12.93153809 37.0197998 11.6875 36.4375 C5.9021875 33.7459375 5.9021875 33.7459375 0 31 C0 20.77 0 10.54 0 0 Z " fill="#E2E2F3" transform="translate(83,111)"/>
<path d="M0 0 C0 5.61 0 11.22 0 17 C-1.69125 17.12375 -3.3825 17.2475 -5.125 17.375 C-9.35242731 17.7513774 -13.03782949 18.39371466 -17 20 C-17.625 17.625 -17.625 17.625 -18 15 C-17.34 14.34 -16.68 13.68 -16 13 C-15.67 13.99 -15.34 14.98 -15 16 C-14.01 16 -13.02 16 -12 16 C-12 14.35 -12 12.7 -12 11 C-10.68 11 -9.36 11 -8 11 C-8 12.65 -8 14.3 -8 16 C-7.34 16 -6.68 16 -6 16 C-6 12.37 -6 8.74 -6 5 C-6.66 5 -7.32 5 -8 5 C-8 6.32 -8 7.64 -8 9 C-9.32 9 -10.64 9 -12 9 C-12 7.68 -12 6.36 -12 5 C-12.99 5.495 -12.99 5.495 -14 6 C-14.65213292 8.02463255 -14.65213292 8.02463255 -15 10 C-15.66 10 -16.32 10 -17 10 C-17 10.66 -17 11.32 -17 12 C-17.66 12 -18.32 12 -19 12 C-19.66 10.02 -20.32 8.04 -21 6 C-13.69374463 1.33288631 -8.70703853 -0.75713379 0 0 Z " fill="#D14436" transform="translate(152,148)"/>
<path d="M0 0 C0.33 0 0.66 0 1 0 C1 10.23 1 20.46 1 31 C-6.51447769 34.51594828 -6.51447769 34.51594828 -9.94140625 36.109375 C-12.41127397 37.25815068 -14.87694512 38.41436939 -17.33984375 39.578125 C-18.30019531 40.02671875 -19.26054688 40.4753125 -20.25 40.9375 C-21.10078125 41.33839844 -21.9515625 41.73929688 -22.828125 42.15234375 C-25 43 -25 43 -28 43 C-28.3125 40.1875 -28.3125 40.1875 -28 37 C-24.78113347 34.7285138 -21.28369785 33.13359494 -17.69921875 31.51953125 C-16.81838623 31.12096924 -15.93755371 30.72240723 -15.0300293 30.31176758 C-13.92699463 29.81700928 -12.82395996 29.32225098 -11.6875 28.8125 C-8.160625 27.224375 -4.63375 25.63625 -1 24 C-0.67 16.08 -0.34 8.16 0 0 Z " fill="#F2F2F9" transform="translate(141,111)"/>
<path d="M0 0 C0.99 0 1.98 0 3 0 C3 8.91 3 17.82 3 27 C-14 35.71428571 -14 35.71428571 -22 38 C-22 36.35 -22 34.7 -22 33 C-19.27655418 31.51011757 -16.54534386 30.03506263 -13.8125 28.5625 C-12.65911133 27.93118164 -12.65911133 27.93118164 -11.48242188 27.28710938 C-10.73154297 26.88427734 -9.98066406 26.48144531 -9.20703125 26.06640625 C-8.5210083 25.69459229 -7.83498535 25.32277832 -7.12817383 24.93969727 C-5 24 -5 24 0 23 C0 15.41 0 7.82 0 0 Z " fill="#DCDBEC" transform="translate(135,106)"/>
<path d="M0 0 C0.66 0 1.32 0 2 0 C1.92031982 0.60884033 1.84063965 1.21768066 1.75854492 1.8449707 C1.03128069 8.59467239 0.39045094 15.59972529 3 22 C8.61901512 27.65415023 16.58492191 30.43772171 24 33 C24 34.65 24 36.3 24 38 C15.56451973 35.48415501 7.93330243 31.78797323 0 28 C0 18.76 0 9.52 0 0 Z " fill="#F3F5FB" transform="translate(88,106)"/>
<path d="M0 0 C1.485 0.99 1.485 0.99 3 2 C3.14684972 4.61979894 3.16966339 7.1344183 3.125 9.75 C3.20015969 15.51141476 3.20015969 15.51141476 6.05859375 20.390625 C8.32820874 21.8494103 10.48713833 23.02531426 13 24 C13.66 23.01 14.32 22.02 15 21 C15.33 21.99 15.66 22.98 16 24 C19.99358311 22.20252521 23.10402855 20.31675362 26 17 C27.18560576 12.85628104 27.0175415 8.62446991 26.9375 4.3515625 C26.958125 3.24554688 26.97875 2.13953125 27 1 C27.66 0.67 28.32 0.34 29 0 C30.526591 16.9790843 30.526591 16.9790843 26.94921875 21.71484375 C24.35871047 23.4687138 21.86792328 24.7607222 19 26 C17.32220779 26.98121917 15.6520472 27.9760284 14 29 C13.24074219 28.44570312 12.48148438 27.89140625 11.69921875 27.3203125 C10.20841797 26.23363281 10.20841797 26.23363281 8.6875 25.125 C7.70136719 24.40570313 6.71523437 23.68640625 5.69921875 22.9453125 C3.82476885 21.5944065 1.92247007 20.28164671 0 19 C-0.34057617 17.02880859 -0.34057617 17.02880859 -0.29296875 14.6484375 C-0.28330078 13.79765625 -0.27363281 12.946875 -0.26367188 12.0703125 C-0.23853516 11.18085937 -0.21339844 10.29140625 -0.1875 9.375 C-0.17396484 8.4778125 -0.16042969 7.580625 -0.14648438 6.65625 C-0.11106925 4.43690211 -0.06168461 2.21874812 0 0 Z " fill="#383567" transform="translate(98,95)"/>
<path d="M0 0 C0 14.19 0 28.38 0 43 C-0.66 42.67 -1.32 42.34 -2 42 C-2.33 30.12 -2.66 18.24 -3 6 C-3.33 14.58 -3.66 23.16 -4 32 C-4.99 31.34 -5.98 30.68 -7 30 C-7.72455389 25.93884501 -7.55559417 21.80567953 -7.5625 17.6875 C-7.59923828 16.54603516 -7.63597656 15.40457031 -7.67382812 14.22851562 C-7.71700285 6.02052099 -7.71700285 6.02052099 -5.65966797 3.09228516 C-2.01585081 0 -2.01585081 0 0 0 Z " fill="#B74130" transform="translate(105,62)"/>
<path d="M0 0 C0.66 0 1.32 0 2 0 C2 8.91 2 17.82 2 27 C-0.92875 28.485 -3.8575 29.97 -6.875 31.5 C-8.25727783 32.20479492 -8.25727783 32.20479492 -9.66748047 32.92382812 C-10.39338379 33.28927734 -11.11928711 33.65472656 -11.8671875 34.03125 C-12.98262939 34.59682617 -12.98262939 34.59682617 -14.12060547 35.17382812 C-16 36 -16 36 -18 36 C-18.38671875 33.76171875 -18.38671875 33.76171875 -18 31 C-15.9183729 29.30848749 -14.12571479 28.09262857 -11.8125 26.8125 C-10.9452832 26.29913086 -10.9452832 26.29913086 -10.06054688 25.77539062 C-6.75897818 23.85413879 -3.56855604 22.42742242 0 21 C0 14.07 0 7.14 0 0 Z " fill="#EAEAF8" transform="translate(131,100)"/>
<path d="M0 0 C0.66 0 1.32 0 2 0 C2 1.32 2 2.64 2 4 C3.32 4 4.64 4 6 4 C6 2.68 6 1.36 6 0 C6.66 0 7.32 0 8 0 C8 3.63 8 7.26 8 11 C7.34 11 6.68 11 6 11 C6 9.35 6 7.7 6 6 C4.68 6 3.36 6 2 6 C2 7.65 2 9.3 2 11 C1.01 11 0.02 11 -1 11 C-1.33 10.34 -1.66 9.68 -2 9 C-3.15811388 11.94729537 -3.15811388 11.94729537 -3 15 C-3.66 15 -4.32 15 -5 15 C-5.33 14.34 -5.66 13.68 -6 13 C-8.02463255 12.34786708 -8.02463255 12.34786708 -10 12 C-10.33 12.99 -10.66 13.98 -11 15 C-11.66 15 -12.32 15 -13 15 C-12.979375 14.05125 -12.95875 13.1025 -12.9375 12.125 C-12.77448174 9.09333717 -12.77448174 9.09333717 -14 7 C-13.01 7 -12.02 7 -11 7 C-11.33 5.68 -11.66 4.36 -12 3 C-10.35 2.34 -8.7 1.68 -7 1 C-6.34 2.98 -5.68 4.96 -5 7 C-4.34 7 -3.68 7 -3 7 C-3 6.34 -3 5.68 -3 5 C-2.34 5 -1.68 5 -1 5 C-0.67 3.35 -0.34 1.7 0 0 Z " fill="#D8564A" transform="translate(138,153)"/>
<path d="M0 0 C0.33 0 0.66 0 1 0 C0.98839844 1.16982422 0.97679688 2.33964844 0.96484375 3.54492188 C0.93214253 7.91394055 0.95226688 12.28143813 0.98779297 16.65039062 C0.9958696 18.53580014 0.98990195 20.42132705 0.96923828 22.30664062 C0.45297241 33.05693289 0.45297241 33.05693289 3.84765625 42.890625 C5.97096218 44.99049229 5.97096218 44.99049229 8.28515625 46.48242188 C10 48 10 48 10.24609375 50.68945312 C10.16488281 51.45193359 10.08367187 52.21441406 10 53 C4.921875 50.16796875 4.921875 50.16796875 3 49 C2.27425781 48.62359375 1.54851562 48.2471875 0.80078125 47.859375 C-1.95916861 45.009622 -1.55913409 41.82222413 -1.5625 38.0625 C-1.52044474 31.44110686 -1.52044474 31.44110686 -5 26 C-4.01 26 -3.02 26 -2 26 C-1.97494385 25.2479126 -1.9498877 24.4958252 -1.92407227 23.72094727 C-1.80849486 20.33460804 -1.68559655 16.94857387 -1.5625 13.5625 C-1.52318359 12.37849609 -1.48386719 11.19449219 -1.44335938 9.97460938 C-1.38051758 8.28754883 -1.38051758 8.28754883 -1.31640625 6.56640625 C-1.27974854 5.52427979 -1.24309082 4.48215332 -1.20532227 3.40844727 C-1 1 -1 1 0 0 Z " fill="#FBD8D5" transform="translate(102,67)"/>
<path d="M0 0 C0.66 0 1.32 0 2 0 C2.3403125 0.67804688 2.680625 1.35609375 3.03125 2.0546875 C13.27767487 21.73000334 28.47526943 34.26316331 49.45703125 41.0546875 C56.39336363 42.90539581 63.30274278 43.24916653 70.4375 43.5625 C71.82098633 43.62727539 71.82098633 43.62727539 73.23242188 43.69335938 C75.48816163 43.79854931 77.74399499 43.90069107 80 44 C80 44.33 80 44.66 80 45 C76.06264583 45.08840346 72.12555276 45.1408564 68.1875 45.1875 C67.08728516 45.21263672 65.98707031 45.23777344 64.85351562 45.26367188 C54.18659982 45.35806936 45.24412332 43.10411089 35.8125 38.1875 C35.12397949 37.83349121 34.43545898 37.47948242 33.72607422 37.11474609 C28.75234229 34.50574935 24.18878098 31.77255961 20 28 C19.21496094 27.30648437 18.42992188 26.61296875 17.62109375 25.8984375 C10.80942496 19.51314798 1.54774025 9.66742372 0 0 Z " fill="#342E60" transform="translate(44,142)"/>
<path d="M0 0 C0.33 0 0.66 0 1 0 C1.01458252 1.17095215 1.02916504 2.3419043 1.04418945 3.54833984 C1.10206349 7.88345224 1.17929611 12.21803923 1.26245117 16.55273438 C1.29575202 18.43057747 1.32376776 20.3085219 1.34643555 22.18652344 C1.37988742 24.88260175 1.43219641 27.577747 1.48828125 30.2734375 C1.49467117 31.11619232 1.5010611 31.95894714 1.50764465 32.82723999 C1.53930845 35.43938687 1.53930845 35.43938687 2 39 C2.99 39.66 3.98 40.32 5 41 C5.29296875 43.8203125 5.29296875 43.8203125 5.1875 47.125 C5.16042969 48.22070312 5.13335937 49.31640625 5.10546875 50.4453125 C5.07066406 51.28835937 5.03585938 52.13140625 5 53 C2.53199953 51.84826645 0.95216435 50.95216435 -1 49 C-1.27174377 47.14050293 -1.27174377 47.14050293 -1.30297852 44.85742188 C-1.31962051 44.00313599 -1.33626251 43.1488501 -1.35340881 42.26867676 C-1.36182297 41.34470093 -1.37023712 40.4207251 -1.37890625 39.46875 C-1.39590073 38.52189331 -1.4128952 37.57503662 -1.43040466 36.5994873 C-1.48365658 33.56639311 -1.52388199 30.53331312 -1.5625 27.5 C-1.60639398 24.4667578 -1.65308579 21.43362322 -1.70530701 18.4005127 C-1.73731365 16.51086469 -1.7641882 14.6211217 -1.78553772 12.73132324 C-1.79902756 11.87703735 -1.8125174 11.02275146 -1.82641602 10.14257812 C-1.83592789 9.38916138 -1.84543976 8.63574463 -1.85523987 7.85949707 C-1.88990704 5.90648236 -1.88990704 5.90648236 -3 4 C-2.01 4 -1.02 4 0 4 C0 2.68 0 1.36 0 0 Z " fill="#FED0C6" transform="translate(106,57)"/>
<path d="M0 0 C1.50560497 2.85410334 2.63216796 5.68124642 3.625 8.75 C3.88539062 9.54921875 4.14578125 10.3484375 4.4140625 11.171875 C4.60742188 11.77515625 4.80078125 12.3784375 5 13 C4.37351562 13.20496094 3.74703125 13.40992188 3.1015625 13.62109375 C2.28429687 13.89050781 1.46703125 14.15992188 0.625 14.4375 C-0.18710938 14.70433594 -0.99921875 14.97117187 -1.8359375 15.24609375 C-4.01031799 15.95179729 -4.01031799 15.95179729 -6 17 C-5.938125 16.236875 -5.87625 15.47375 -5.8125 14.6875 C-5.7071119 11.96479875 -5.7071119 11.96479875 -7.5 10.5 C-9 9 -9 9 -9.375 6.5 C-9 4 -9 4 -7.875 2.25 C-5.34022139 0.56014759 -2.99424517 0.33269391 0 0 Z " fill="#5D5D5D" transform="translate(84,23)"/>
<path d="M0 0 C1.09054688 0.02320312 2.18109375 0.04640625 3.3046875 0.0703125 C4.40039062 0.08835937 5.49609375 0.10640625 6.625 0.125 C7.46804687 0.14820312 8.31109375 0.17140625 9.1796875 0.1953125 C9.1796875 1.1853125 9.1796875 2.1753125 9.1796875 3.1953125 C7.1996875 3.5253125 5.2196875 3.8553125 3.1796875 4.1953125 C3.1796875 5.1853125 3.1796875 6.1753125 3.1796875 7.1953125 C4.4996875 7.1953125 5.8196875 7.1953125 7.1796875 7.1953125 C7.5096875 6.5353125 7.8396875 5.8753125 8.1796875 5.1953125 C8.1796875 6.5153125 8.1796875 7.8353125 8.1796875 9.1953125 C6.5296875 9.1953125 4.8796875 9.1953125 3.1796875 9.1953125 C3.1796875 9.8553125 3.1796875 10.5153125 3.1796875 11.1953125 C4.8296875 11.1953125 6.4796875 11.1953125 8.1796875 11.1953125 C8.8396875 13.5053125 9.4996875 15.8153125 10.1796875 18.1953125 C9.5196875 18.1953125 8.8596875 18.1953125 8.1796875 18.1953125 C7.8496875 17.2053125 7.5196875 16.2153125 7.1796875 15.1953125 C5.16460392 14.46207454 5.16460392 14.46207454 3.1796875 14.1953125 C2.8496875 15.1853125 2.5196875 16.1753125 2.1796875 17.1953125 C1.8496875 16.5353125 1.5196875 15.8753125 1.1796875 15.1953125 C-0.46174213 14.1544059 -2.12743465 13.15026924 -3.8203125 12.1953125 C-3.4903125 11.5353125 -3.1603125 10.8753125 -2.8203125 10.1953125 C-1.5003125 10.5253125 -0.1803125 10.8553125 1.1796875 11.1953125 C1.1796875 10.2053125 1.1796875 9.2153125 1.1796875 8.1953125 C-0.8003125 8.5253125 -2.7803125 8.8553125 -4.8203125 9.1953125 C-4.9453125 5.8203125 -4.9453125 5.8203125 -4.8203125 2.1953125 C-2.8203125 0.1953125 -2.8203125 0.1953125 0 0 Z " fill="#4B4B4B" transform="translate(23.8203125,98.8046875)"/>
<path d="M0 0 C0.33 0 0.66 0 1 0 C1 6.27 1 12.54 1 19 C3.475 19.99 3.475 19.99 6 21 C8.31349169 22.22861868 10.56202625 23.48027975 12.8125 24.8125 C13.40998047 25.14314453 14.00746094 25.47378906 14.62304688 25.81445312 C16.33203125 26.83203125 16.33203125 26.83203125 19 29 C19.38671875 31.76171875 19.38671875 31.76171875 19 34 C12.13076587 31.93296602 6.26697962 28.45323367 0 25 C0 16.75 0 8.5 0 0 Z " fill="#F1F3FA" transform="translate(93,102)"/>
<path d="M0 0 C0.99 0.33 1.98 0.66 3 1 C3 2.65 3 4.3 3 6 C3.66 6.33 4.32 6.66 5 7 C5.02689449 9.95839355 5.04678741 12.91654427 5.0625 15.875 C5.07087891 16.71675781 5.07925781 17.55851562 5.08789062 18.42578125 C5.09111328 19.23144531 5.09433594 20.03710938 5.09765625 20.8671875 C5.10289307 21.61081543 5.10812988 22.35444336 5.11352539 23.12060547 C5 25 5 25 4 27 C3.34 27 2.68 27 2 27 C1.67 31.29 1.34 35.58 1 40 C0.67 40 0.34 40 0 40 C0 26.8 0 13.6 0 0 Z " fill="#DA8D83" transform="translate(122,67)"/>
<path d="M0 0 C0.66 0.33 1.32 0.66 2 1 C4.22639544 20.72684222 4.22639544 20.72684222 0.65820312 25.97265625 C-3.12701611 29.43268483 -8.75384852 33 -14 33 C-14.30078125 30.73046875 -14.30078125 30.73046875 -14 28 C-11.91796875 26.05078125 -11.91796875 26.05078125 -9.1875 24.3125 C-7.84751953 23.44044922 -7.84751953 23.44044922 -6.48046875 22.55078125 C-5.25263672 21.78314453 -5.25263672 21.78314453 -4 21 C-0.84889597 19.40040156 -0.84889597 19.40040156 -0.56762695 17.02880859 C-0.54144287 16.24328613 -0.51525879 15.45776367 -0.48828125 14.6484375 C-0.45283203 13.79765625 -0.41738281 12.946875 -0.38085938 12.0703125 C-0.35830078 11.18085937 -0.33574219 10.29140625 -0.3125 9.375 C-0.27833984 8.4778125 -0.24417969 7.580625 -0.20898438 6.65625 C-0.12637598 4.43762462 -0.05727281 2.2194006 0 0 Z " fill="#DFDEF7" transform="translate(127,95)"/>
<path d="M0 0 C1.32 0.33 2.64 0.66 4 1 C4.66 3.31 5.32 5.62 6 8 C5.01 8.495 5.01 8.495 4 9 C4.33 9.66 4.66 10.32 5 11 C4.67 11.66 4.34 12.32 4 13 C2.845 13.309375 1.69 13.61875 0.5 13.9375 C-0.655 14.288125 -1.81 14.63875 -3 15 C-3.33 15.99 -3.66 16.98 -4 18 C-5.03046722 16.21385682 -6.04913236 14.42089982 -7.0625 12.625 C-7.63097656 11.62726563 -8.19945313 10.62953125 -8.78515625 9.6015625 C-9.18605469 8.74304688 -9.58695313 7.88453125 -10 7 C-9.67 6.34 -9.34 5.68 -9 5 C-7.02 5.495 -7.02 5.495 -5 6 C-4.67 5.34 -4.34 4.68 -4 4 C-4 4.66 -4 5.32 -4 6 C-3.34 6 -2.68 6 -2 6 C-1.67 5.01 -1.34 4.02 -1 3 C-0.01 3.33 0.98 3.66 2 4 C1.34 2.68 0.68 1.36 0 0 Z " fill="#B8B8B7" transform="translate(35,138)"/>
<path d="M0 0 C0.33 0 0.66 0 1 0 C1.24858198 2.77034137 1.47452879 5.53939069 1.6875 8.3125 C1.76033203 9.09818359 1.83316406 9.88386719 1.90820312 10.69335938 C1.96298828 11.45068359 2.01777344 12.20800781 2.07421875 12.98828125 C2.16062622 14.03302612 2.16062622 14.03302612 2.2487793 15.09887695 C1.92116449 17.60244563 0.76783234 18.27265237 -1 20 C-1.06579929 21.84854879 -1.11904181 23.70003379 -1.06054688 25.54882812 C-0.90836809 30.92417545 -0.82674237 34.65409528 -4.46875 38.83203125 C-11.69459459 44 -11.69459459 44 -14 44 C-14.27734375 41.71484375 -14.27734375 41.71484375 -14 39 C-12.06640625 37.25390625 -12.06640625 37.25390625 -9.5625 35.5625 C-6.25502988 32.87194045 -5.13285729 31.58773533 -4.1796875 27.37109375 C-3.96197516 23.89120772 -3.87768022 20.48366734 -4 17 C-3.01 17.33 -2.02 17.66 -1 18 C-0.505 9.09 -0.505 9.09 0 0 Z " fill="#F6EDED" transform="translate(127,76)"/>
<path d="M0 0 C0.33 0.99 0.66 1.98 1 3 C-3.03230745 5.01928648 -7.0772215 7.0119318 -11.125 9 C-12.26710937 9.57234375 -13.40921875 10.1446875 -14.5859375 10.734375 C-16.24882813 11.54648438 -16.24882813 11.54648438 -17.9453125 12.375 C-18.96125488 12.87773437 -19.97719727 13.38046875 -21.02392578 13.8984375 C-24.22209858 15.08220745 -26.61852851 15.21161751 -30 15 C-30 14.34 -30 13.68 -30 13 C-4.29032258 0 -4.29032258 0 0 0 Z " fill="#332D67" transform="translate(143,142)"/>
<path d="M0 0 C0 0.99 0 1.98 0 3 C1.32 3.66 2.64 4.32 4 5 C4 5.66 4 6.32 4 7 C4.66 7.33 5.32 7.66 6 8 C6 8.99 6 9.98 6 11 C0.74285714 15 0.74285714 15 -2 15 C-2 14.01 -2 13.02 -2 12 C-2.99 12 -3.98 12 -5 12 C-4.67 10.68 -4.34 9.36 -4 8 C-5.32 8 -6.64 8 -8 8 C-8 5 -8 5 -5.6875 2.3125 C-3 0 -3 0 0 0 Z " fill="#797979" transform="translate(182,53)"/>
<path d="M0 0 C0 0.66 0 1.32 0 2 C-0.66 2 -1.32 2 -2 2 C-2 3.65 -2 5.3 -2 7 C-3.98 7.66 -5.96 8.32 -8 9 C-6.35 9 -4.7 9 -3 9 C-3 9.99 -3 10.98 -3 12 C-5.25 12.3125 -5.25 12.3125 -8 12 C-10.1875 9.5625 -10.1875 9.5625 -12 7 C-12.66 6.67 -13.32 6.34 -14 6 C-13.67 6.99 -13.34 7.98 -13 9 C-13.66 9 -14.32 9 -15 9 C-14.67 7.35 -14.34 5.7 -14 4 C-13.34 4 -12.68 4 -12 4 C-12 2.68 -12 1.36 -12 0 C-3.42857143 -1.28571429 -3.42857143 -1.28571429 0 0 Z " fill="#D4D5D5" transform="translate(206,104)"/>
<path d="M0 0 C5.96564796 0.50771472 10.63809899 2.38592128 16 5 C16 7.31 16 9.62 16 12 C12.05050296 11.37183502 8.80107972 10.1354471 5.1875 8.4375 C3.72376953 7.75494141 3.72376953 7.75494141 2.23046875 7.05859375 C1.49441406 6.70925781 0.75835937 6.35992187 0 6 C0 4.02 0 2.04 0 0 Z " fill="#F2F2F9" transform="translate(96,142)"/>
<path d="M0 0 C2 2 2 2 2.24291992 3.87727356 C2.23881104 4.63940659 2.23470215 5.40153961 2.23046875 6.18676758 C2.22966309 7.05139114 2.22885742 7.91601471 2.22802734 8.80683899 C2.21465332 9.74327744 2.2012793 10.67971588 2.1875 11.64453125 C2.1767041 12.60646896 2.1659082 13.56840668 2.15478516 14.55949402 C2.12670134 16.59809995 2.092679 18.6366313 2.05322266 20.67504883 C2.0003878 23.78963958 1.98984009 26.9025946 1.98046875 30.01757812 C1.94793234 31.99744062 1.91285846 33.97726337 1.875 35.95703125 C1.87781982 36.887397 1.88063965 37.81776276 1.88354492 38.77632141 C1.69418044 45.13685023 1.69418044 45.13685023 -0.39355469 47.73275757 C-2.0546875 49.12768555 -2.0546875 49.12768555 -5 51 C-5.08107583 49.06318839 -5.13922475 47.1254066 -5.1875 45.1875 C-5.22230469 44.10855469 -5.25710937 43.02960938 -5.29296875 41.91796875 C-5 39 -5 39 -3.61328125 37.11328125 C-2 36 -2 36 0 36 C0 24.12 0 12.24 0 0 Z " fill="#FEE8E2" transform="translate(119,60)"/>
<path d="M0 0 C0.33 0 0.66 0 1 0 C0.93296875 1.27875 0.8659375 2.5575 0.796875 3.875 C0.27541435 12.6851633 0.27541435 12.6851633 3.20898438 20.66894531 C6.3913413 23.52058671 10.11849968 25.29620189 14 27 C15 28 15 28 15.0625 30.5625 C15.041875 31.366875 15.02125 32.17125 15 33 C9.43359375 30.36328125 9.43359375 30.36328125 7 29 C6.39808838 28.72696045 5.79617676 28.4539209 5.17602539 28.17260742 C2.96417503 26.96953354 1.57295106 25.97965174 0 24 C-0.87224 19.86911695 -0.66078621 15.8857714 -0.4375 11.6875 C-0.40591797 10.56537109 -0.37433594 9.44324219 -0.34179688 8.28710938 C-0.25943395 5.52206828 -0.14448575 2.76237698 0 0 Z " fill="#F0F1F9" transform="translate(97,95)"/>
<path d="M0 0 C1.32 0 2.64 0 4 0 C4.66 0.99 5.32 1.98 6 3 C6.99 3.33 7.98 3.66 9 4 C9 4.99 9 5.98 9 7 C8.01 7.33 7.02 7.66 6 8 C5.67 8.99 5.34 9.98 5 11 C4.34 11 3.68 11 3 11 C3 11.66 3 12.32 3 13 C-0.34019306 12.40353695 -2.50470633 11.31705841 -5 9 C-5 8.01 -5 7.02 -5 6 C-4.34 6 -3.68 6 -3 6 C-2.67 5.01 -2.34 4.02 -2 3 C-1.34 3 -0.68 3 0 3 C0 2.01 0 1.02 0 0 Z " fill="#828282" transform="translate(50,47)"/>
<path d="M0 0 C0.66 0 1.32 0 2 0 C2 8.91 2 17.82 2 27 C3.98 27.66 5.96 28.32 8 29 C9.98085062 29.99818321 11.94046585 31.03977352 13.875 32.125 C14.84179688 32.66382813 15.80859375 33.20265625 16.8046875 33.7578125 C17.52914062 34.16773438 18.25359375 34.57765625 19 35 C19 35.66 19 36.32 19 37 C14.94330316 36.26427664 11.44923348 34.35372904 7.8125 32.5 C7.17119141 32.17902344 6.52988281 31.85804688 5.86914062 31.52734375 C1.14060834 29.14060834 1.14060834 29.14060834 0 28 C-0.08767112 25.92737924 -0.10695873 23.85179706 -0.09765625 21.77734375 C-0.09443359 20.51728516 -0.09121094 19.25722656 -0.08789062 17.95898438 C-0.07953403 16.61848891 -0.07106907 15.27799412 -0.0625 13.9375 C-0.0574866 12.59310058 -0.05292342 11.2486994 -0.04882812 9.90429688 C-0.03699488 6.60282059 -0.02050971 3.30143197 0 0 Z " fill="#24205B" transform="translate(90,100)"/>
<path d="M0 0 C0.33 0.99 0.66 1.98 1 3 C0.34 3 -0.32 3 -1 3 C-1 5.97 -1 8.94 -1 12 C-3.31 11.67 -5.62 11.34 -8 11 C-7.67 12.32 -7.34 13.64 -7 15 C-7.66 15 -8.32 15 -9 15 C-9 10.05 -9 5.1 -9 0 C-3 -1 -3 -1 0 0 Z " fill="#DC3C29" transform="translate(84,149)"/>
<path d="M0 0 C0.99 0.66 1.98 1.32 3 2 C2.65066406 2.47050781 2.30132812 2.94101563 1.94140625 3.42578125 C1.48636719 4.04839844 1.03132813 4.67101562 0.5625 5.3125 C0.11003906 5.92738281 -0.34242187 6.54226562 -0.80859375 7.17578125 C-2.17336308 9.09677101 -2.17336308 9.09677101 -3 12 C-2.34 12.33 -1.68 12.66 -1 13 C-0.690625 12.21625 -0.38125 11.4325 -0.0625 10.625 C1 8 1 8 2 6 C4.31 6.66 6.62 7.32 9 8 C8.42647107 11.87132028 6.51295648 14.08172796 4 17 C3.34 15.68 2.68 14.36 2 13 C1.01 13.66 0.02 14.32 -1 15 C-4.1875 15.125 -4.1875 15.125 -7 15 C-5.45454854 9.52067211 -2.84456788 4.88570819 0 0 Z " fill="#676767" transform="translate(66,178)"/>
<path d="M0 0 C2.31 0.33 4.62 0.66 7 1 C7 1.99 7 2.98 7 4 C7.66 4 8.32 4 9 4 C9 4.66 9 5.32 9 6 C8.34 6 7.68 6 7 6 C7.2784375 6.9590625 7.2784375 6.9590625 7.5625 7.9375 C7.706875 8.618125 7.85125 9.29875 8 10 C6.41727399 11.58272601 4.61965997 11.34735747 2.4375 11.5625 C1.61121094 11.64628906 0.78492188 11.73007813 -0.06640625 11.81640625 C-0.70449219 11.87699219 -1.34257812 11.93757813 -2 12 C-2 11.34 -2 10.68 -2 10 C-1.01 10 -0.02 10 1 10 C1 9.34 1 8.68 1 8 C0.360625 7.773125 -0.27875 7.54625 -0.9375 7.3125 C-3 6 -3 6 -3.75 3.375 C-3.8325 2.59125 -3.915 1.8075 -4 1 C-2.68 1.33 -1.36 1.66 0 2 C0 1.34 0 0.68 0 0 Z " fill="#474747" transform="translate(195,90)"/>
<path d="M0 0 C2.64 0 5.28 0 8 0 C8 0.33 8 0.66 8 1 C6.02 1 4.04 1 2 1 C2 5.95 2 10.9 2 16 C2.33 14.68 2.66 13.36 3 12 C8.75 11.875 8.75 11.875 11 13 C11 10.36 11 7.72 11 5 C11.66 5 12.32 5 13 5 C13.08131463 6.43655854 13.13933559 7.8744483 13.1875 9.3125 C13.22230469 10.11300781 13.25710937 10.91351563 13.29296875 11.73828125 C13 14 13 14 11.8125 15.78125 C9.37030737 17.42341401 7.72763706 17.30107677 4.8125 17.1875 C3.224375 17.125625 1.63625 17.06375 0 17 C0 11.39 0 5.78 0 0 Z " fill="#C54C3E" transform="translate(73,148)"/>
<path d="M0 0 C3.34373475 0.55728913 6.03312999 1.35173889 9 3 C9 3.99 9 4.98 9 6 C8.01 6 7.02 6 6 6 C6 7.32 6 8.64 6 10 C5.34 10 4.68 10 4 10 C4 10.99 4 11.98 4 13 C1.0280615 11.87548273 -1.33440687 10.77706209 -4 9 C-3.67 7.35 -3.34 5.7 -3 4 C-2.01 4 -1.02 4 0 4 C0 2.68 0 1.36 0 0 Z " fill="#7D7D7D" transform="translate(40,59)"/>
<path d="M0 0 C2 2 2 2 2.18286133 4.3984375 C2.07440922 7.60000676 1.95812795 10.79987189 1.8125 14 C1.78091797 15.11890625 1.74933594 16.2378125 1.71679688 17.390625 C1.67232422 18.45796875 1.62785156 19.5253125 1.58203125 20.625 C1.54311768 21.60726562 1.5042041 22.58953125 1.46411133 23.6015625 C1.23437622 24.78878906 1.23437622 24.78878906 1 26 C0.01 26.66 -0.98 27.32 -2 28 C-2.73343428 31.06556598 -2.73343428 31.06556598 -3 34 C-3.33 34 -3.66 34 -4 34 C-4.33 24.76 -4.66 15.52 -5 6 C-4.34 5.67 -3.68 5.34 -3 5 C-1.9590934 3.35857037 -0.95495674 1.69287785 0 0 Z " fill="#7E7EA4" transform="translate(96,93)"/>
<path d="M0 0 C3.75345656 0.71971619 6.86091969 2.33112202 10.25 4.0625 C11.32765625 4.61035156 12.4053125 5.15820312 13.515625 5.72265625 C14.74539062 6.35494141 14.74539062 6.35494141 16 7 C16 8.65 16 10.3 16 12 C9.79522136 10.06375702 3.89174281 7.74390859 -2 5 C-1.34 3.35 -0.68 1.7 0 0 Z " fill="#EDEEF7" transform="translate(96,132)"/>
<path d="M0 0 C0 1.65 0 3.3 0 5 C0.66 5 1.32 5 2 5 C2 6.32 2 7.64 2 9 C0.02 9.33 -1.96 9.66 -4 10 C-4 10.66 -4 11.32 -4 12 C-4.66 12 -5.32 12 -6 12 C-7.27253436 8.35206816 -8.32829194 4.8063457 -9 1 C-5.64919071 -1.10976881 -3.77897651 -1.0497157 0 0 Z " fill="#D7D7D7" transform="translate(196,76)"/>
<path d="M0 0 C2.88575819 0.39803561 3.82189513 0.79009069 5.75 3.0625 C6.36875 4.0215625 6.36875 4.0215625 7 5 C5.90398831 6.00893131 4.79786082 7.00688225 3.6875 8 C3.07261719 8.556875 2.45773438 9.11375 1.82421875 9.6875 C0 11 0 11 -3 11 C-3 11.66 -3 12.32 -3 13 C-0.19954954 13.85650653 -0.19954954 13.85650653 3 14 C5.88642473 11.81567858 6.85101198 10.44696406 8 7 C9.32 7.66 10.64 8.32 12 9 C11.01 9.33 10.02 9.66 9 10 C7.94978897 11.84971696 7.94978897 11.84971696 7 14 C5.5 16.25 5.5 16.25 4 18 C3.34 18 2.68 18 2 18 C2 17.34 2 16.68 2 16 C1.030625 15.690625 0.06125 15.38125 -0.9375 15.0625 C-4 14 -4 14 -5 13 C-5.1875 9.5625 -5.1875 9.5625 -5 6 C-4.34 5.34 -3.68 4.68 -3 4 C-2.01 4.33 -1.02 4.66 0 5 C-0.66 6.32 -1.32 7.64 -2 9 C-1.34 9 -0.68 9 0 9 C1.4606285 6.35261084 2 5.10551666 2 2 C1.34 1.34 0.68 0.68 0 0 Z " fill="#363636" transform="translate(169,38)"/>
<path d="M0 0 C0.68263916 0.12600586 1.36527832 0.25201172 2.06860352 0.38183594 C5.48548744 1.06359758 8.48381605 1.85530024 11.5 3.625 C8.09313344 4.79417466 6.33945944 4.40727009 3 3.1875 C-8.44549658 -0.16165202 -21.87333221 0.74182694 -33.3828125 3.3828125 C-34.43082031 3.50269531 -34.43082031 3.50269531 -35.5 3.625 C-36.16 2.965 -36.82 2.305 -37.5 1.625 C-25.00246834 -1.78341773 -12.75832651 -2.36002222 0 0 Z " fill="#4B4571" transform="translate(127.5,39.375)"/>
<path d="M0 0 C4.02992782 0.55312735 8.02022924 1.1558062 12 2 C11.67 4.97 11.34 7.94 11 11 C8.36 10.67 5.72 10.34 3 10 C3.33 7.36 3.66 4.72 4 2 C3.01 2.495 3.01 2.495 2 3 C1.34227572 6.02934491 1.34227572 6.02934491 1 9 C0.34 9 -0.32 9 -1 9 C-0.67 6.03 -0.34 3.06 0 0 Z " fill="#E8E8E8" transform="translate(126,24)"/>
<path d="M0 0 C0.33 0 0.66 0 1 0 C1 5.61 1 11.22 1 17 C-0.69125 17.12375 -2.3825 17.2475 -4.125 17.375 C-8.35242731 17.7513774 -12.03782949 18.39371466 -16 20 C-16.625 17.625 -16.625 17.625 -17 15 C-16.34 14.34 -15.68 13.68 -15 13 C-14.67 13.99 -14.34 14.98 -14 16 C-13.01 16 -12.02 16 -11 16 C-11 14.35 -11 12.7 -11 11 C-9.68 11 -8.36 11 -7 11 C-7 12.65 -7 14.3 -7 16 C-6.34 16 -5.68 16 -5 16 C-5 12.7 -5 9.4 -5 6 C-4.67 6 -4.34 6 -4 6 C-4 9.3 -4 12.6 -4 16 C-2.68 16 -1.36 16 0 16 C0 10.72 0 5.44 0 0 Z " fill="#C63E2D" transform="translate(151,148)"/>
<path d="M0 0 C6.30549898 0.3503055 6.30549898 0.3503055 8.9375 2.8125 C10 5 10 5 10 9 C8.35 9.33 6.7 9.66 5 10 C5 9.34 5 8.68 5 8 C4.195625 7.855625 3.39125 7.71125 2.5625 7.5625 C0 7 0 7 -1 6 C-1.125 3.5 -1.125 3.5 -1 1 C-0.67 0.67 -0.34 0.34 0 0 Z " fill="#BEBEBE" transform="translate(178,159)"/>
<path d="M0 0 C2.31 0 4.62 0 7 0 C7 5.28 7 10.56 7 16 C5.68 16 4.36 16 3 16 C2.92652344 14.95199219 2.92652344 14.95199219 2.8515625 13.8828125 C2.73941406 12.51769531 2.73941406 12.51769531 2.625 11.125 C2.55539063 10.22007812 2.48578125 9.31515625 2.4140625 8.3828125 C2.20431868 5.82058097 2.20431868 5.82058097 0 4 C0 2.68 0 1.36 0 0 Z " fill="#DB3725" transform="translate(144,148)"/>
<path d="M0 0 C1.485 0.99 1.485 0.99 3 2 C3.17348849 4.62291077 3.21820003 7.13026432 3.1875 9.75 C3.26599164 15.43229917 3.26599164 15.43229917 5.8359375 20.390625 C7.84030226 21.83939392 9.7367122 23.01013381 12 24 C8.41450897 25.19516368 7.62381309 24.89232598 4.3125 23.25 C1.8984375 21.6328125 1.8984375 21.6328125 0 19 C-1.19476423 12.77197368 -0.50326899 6.27532937 0 0 Z " fill="#484777" transform="translate(98,95)"/>
<path d="M0 0 C0.99 0 1.98 0 3 0 C3 8.91 3 17.82 3 27 C2.01 26.34 1.02 25.68 0 25 C-0.34057617 22.47802734 -0.34057617 22.47802734 -0.29296875 19.3359375 C-0.28330078 18.21445313 -0.27363281 17.09296875 -0.26367188 15.9375 C-0.23853516 14.761875 -0.21339844 13.58625 -0.1875 12.375 C-0.17396484 11.19164063 -0.16042969 10.00828125 -0.14648438 8.7890625 C-0.11103916 5.85892461 -0.06162769 2.92968541 0 0 Z " fill="#CA5E51" transform="translate(98,67)"/>
<path d="M0 0 C1.99609375 0.05078125 1.99609375 0.05078125 4.4375 0.3125 C5.64212891 0.43044922 5.64212891 0.43044922 6.87109375 0.55078125 C9 1 9 1 11 3 C11.125 6.125 11.125 6.125 11 9 C6.94568308 10.15837626 4.78187881 9.83691257 1 8 C1 7.34 1 6.68 1 6 C1.66 6 2.32 6 3 6 C3.33 4.68 3.66 3.36 4 2 C3.01 2 2.02 2 1 2 C0.67 2.99 0.34 3.98 0 5 C-0.5625 3.0625 -0.5625 3.0625 -1 1 C-0.67 0.67 -0.34 0.34 0 0 Z " fill="#515151" transform="translate(188,139)"/>
<path d="M0 0 C0 1.65 0 3.3 0 5 C-1.95585325 6.00484204 -3.91476237 7.00373805 -5.875 8 C-6.96554688 8.556875 -8.05609375 9.11375 -9.1796875 9.6875 C-12 11 -12 11 -14 11 C-14 9.35 -14 7.7 -14 6 C-12.2335343 4.9923048 -10.46166177 3.99408286 -8.6875 3 C-7.20830078 2.1646875 -7.20830078 2.1646875 -5.69921875 1.3125 C-3 0 -3 0 0 0 Z " fill="#F0F2F7" transform="translate(127,133)"/>
<path d="M0 0 C0.66 0.99 1.32 1.98 2 3 C3.65 2.67 5.3 2.34 7 2 C7.33 5.3 7.66 8.6 8 12 C5.36 12 2.72 12 0 12 C-0.66 8.37 -1.32 4.74 -2 1 C-1.34 0.67 -0.68 0.34 0 0 Z " fill="#E5E5E6" transform="translate(91,22)"/>
<path d="M0 0 C1.32 0 2.64 0 4 0 C3.67 3.96 3.34 7.92 3 12 C4.65 12.33 6.3 12.66 8 13 C8 13.33 8 13.66 8 14 C4.37 14 0.74 14 -3 14 C-3.33 13.34 -3.66 12.68 -4 12 C-3.34 11.67 -2.68 11.34 -2 11 C-1.57014306 8.67646015 -1.57014306 8.67646015 -1.4375 6 C-1.09618321 1.09618321 -1.09618321 1.09618321 0 0 Z " fill="#D93A2A" transform="translate(112,161)"/>
<path d="M0 0 C0.33 1.32 0.66 2.64 1 4 C1.99 4 2.98 4 4 4 C3.67 14.56 3.34 25.12 3 36 C2.67 36 2.34 36 2 36 C1.67 34.02 1.34 32.04 1 30 C0.67 30 0.34 30 0 30 C-0.16755938 26.04924621 -0.3281242 22.09827679 -0.48217773 18.14697266 C-0.56187238 16.14079929 -0.64712518 14.13484924 -0.73242188 12.12890625 C-0.78076172 10.87207031 -0.82910156 9.61523438 -0.87890625 8.3203125 C-0.9260376 7.15773926 -0.97316895 5.99516602 -1.02172852 4.79736328 C-1 2 -1 2 0 0 Z " fill="#635F8B" transform="translate(140,105)"/>
<path d="M0 0 C0.66 0.33 1.32 0.66 2 1 C-8.06851525 9.09590818 -20.62753513 16.81867844 -34 17 C-36.3046875 16.03125 -36.3046875 16.03125 -38 15 C-37.3915625 14.92523438 -36.783125 14.85046875 -36.15625 14.7734375 C-23.72531763 12.90879764 -12.28725772 8.5140459 -2.0390625 1.22265625 C-1.02972656 0.61744141 -1.02972656 0.61744141 0 0 Z " fill="#403B6A" transform="translate(158,170)"/>
<path d="M0 0 C1.21816406 0.03480469 1.21816406 0.03480469 2.4609375 0.0703125 C3.68683594 0.09738281 3.68683594 0.09738281 4.9375 0.125 C5.87722656 0.15980469 5.87722656 0.15980469 6.8359375 0.1953125 C6.5059375 1.1853125 6.1759375 2.1753125 5.8359375 3.1953125 C5.1759375 3.1953125 4.5159375 3.1953125 3.8359375 3.1953125 C2.69240834 5.48237081 2.73259311 6.78796012 2.7734375 9.3203125 C2.7940625 10.5990625 2.8146875 11.8778125 2.8359375 13.1953125 C3.1659375 10.2253125 3.4959375 7.2553125 3.8359375 4.1953125 C4.1659375 4.1953125 4.4959375 4.1953125 4.8359375 4.1953125 C4.94418593 5.7979907 5.02164395 7.40276998 5.0859375 9.0078125 C5.13234375 9.90113281 5.17875 10.79445313 5.2265625 11.71484375 C4.8359375 14.1953125 4.8359375 14.1953125 3.0234375 16.0078125 C0.18193756 17.55034104 -1.98114061 17.4123299 -5.1640625 17.1953125 C-5.1640625 16.5353125 -5.1640625 15.8753125 -5.1640625 15.1953125 C-3.1840625 15.1953125 -1.2040625 15.1953125 0.8359375 15.1953125 C0.26248813 12.32806564 -0.025514 11.333861 -2.1640625 9.1953125 C-2.1640625 8.2053125 -2.1640625 7.2153125 -2.1640625 6.1953125 C-1.1740625 6.1953125 -0.1840625 6.1953125 0.8359375 6.1953125 C1.1659375 4.8753125 1.4959375 3.5553125 1.8359375 2.1953125 C-0.1440625 2.1953125 -2.1240625 2.1953125 -4.1640625 2.1953125 C-2.1640625 0.1953125 -2.1640625 0.1953125 0 0 Z " fill="#3D3D3E" transform="translate(110.1640625,17.8046875)"/>
<path d="M0 0 C4 2 4 2 6 4 C6.125 7.125 6.125 7.125 6 10 C5.34 10 4.68 10 4 10 C3.87625 9.195625 3.7525 8.39125 3.625 7.5625 C3.315625 6.2940625 3.315625 6.2940625 3 5 C2.34 4.67 1.68 4.34 1 4 C1 16.87 1 29.74 1 43 C0.67 43 0.34 43 0 43 C0 28.81 0 14.62 0 0 Z " fill="#BC3A2E" transform="translate(121,63)"/>
<path d="M0 0 C0 0.66 0 1.32 0 2 C2.64 2 5.28 2 8 2 C8 2.33 8 2.66 8 3 C7.42894531 3.00257813 6.85789063 3.00515625 6.26953125 3.0078125 C-0.7196242 3.34115855 -5.92033445 5.54956884 -12.1171875 8.72265625 C-15 10 -15 10 -19 10 C-19 9.34 -19 8.68 -19 8 C-16.21128823 6.66042079 -13.41856938 5.32941565 -10.625 4 C-9.8309375 3.6184375 -9.036875 3.236875 -8.21875 2.84375 C-7.45820313 2.4828125 -6.69765625 2.121875 -5.9140625 1.75 C-5.2123291 1.41484375 -4.5105957 1.0796875 -3.78759766 0.734375 C-2 0 -2 0 0 0 Z " fill="#F1E2E7" transform="translate(144,145)"/>
<path d="M0 0 C0.33 1.32 0.66 2.64 1 4 C1.391875 3.484375 1.78375 2.96875 2.1875 2.4375 C2.785625 1.963125 3.38375 1.48875 4 1 C6.6875 1.3125 6.6875 1.3125 9 2 C9 2.66 9 3.32 9 4 C9.66 4.33 10.32 4.66 11 5 C9.04414675 6.00484204 7.08523763 7.00373805 5.125 8 C4.03445312 8.556875 2.94390625 9.11375 1.8203125 9.6875 C-1 11 -1 11 -3 11 C-3 10.34 -3 9.68 -3 9 C-2.01 9 -1.02 9 0 9 C0 6.03 0 3.06 0 0 Z " fill="#CA4332" transform="translate(124,164)"/>
<path d="M0 0 C1.9375 1.75 1.9375 1.75 3 4 C2.6875 6.75 2.6875 6.75 2 9 C1.01 9 0.02 9 -1 9 C-1 8.34 -1 7.68 -1 7 C-2.98 7 -4.96 7 -7 7 C-6.67 6.34 -6.34 5.68 -6 5 C-5.01 5.33 -4.02 5.66 -3 6 C-3 4.68 -3 3.36 -3 2 C-4.65 2.33 -6.3 2.66 -8 3 C-8 2.01 -8 1.02 -8 0 C-5.03475663 -1.48262169 -3.14877613 -0.83538959 0 0 Z " fill="#4C4C4C" transform="translate(191,150)"/>
<path d="M0 0 C4.5 2.25 4.5 2.25 6 6 C6.33 4.02 6.66 2.04 7 0 C7.66 0 8.32 0 9 0 C9 3.63 9 7.26 9 11 C5 9 5 9 3 6 C2.67 7.65 2.34 9.3 2 11 C1.34 11 0.68 11 0 11 C0 7.37 0 3.74 0 0 Z " fill="#FCCAC0" transform="translate(101,162)"/>
<path d="M0 0 C1.65 1.65 3.3 3.3 5 5 C5.33 3.35 5.66 1.7 6 0 C6.66 0 7.32 0 8 0 C8 3.63 8 7.26 8 11 C3.5 8.75 3.5 8.75 2 5 C1.67 6.98 1.34 8.96 1 11 C0.34 11 -0.32 11 -1 11 C-1.02688151 9.35425434 -1.04634123 7.70838587 -1.0625 6.0625 C-1.07410156 5.14597656 -1.08570312 4.22945312 -1.09765625 3.28515625 C-1 1 -1 1 0 0 Z " fill="#FED0C0" transform="translate(116,162)"/>
<path d="M0 0 C0.33 0 0.66 0 1 0 C1 5.94 1 11.88 1 18 C3.475 18.99 3.475 18.99 6 20 C7.45830768 20.83986306 8.89769067 21.71376687 10.3125 22.625 C11.00988281 23.07101563 11.70726563 23.51703125 12.42578125 23.9765625 C12.94527344 24.31429687 13.46476562 24.65203125 14 25 C13.67 25.99 13.34 26.98 13 28 C11.01974361 26.85605098 9.04082322 25.70978896 7.0625 24.5625 C5.96035156 23.92441406 4.85820313 23.28632812 3.72265625 22.62890625 C1 21 1 21 0 20 C-0.08669432 18.5112814 -0.10703494 17.018555 -0.09765625 15.52734375 C-0.09443359 14.62822266 -0.09121094 13.72910156 -0.08789062 12.80273438 C-0.07951172 11.85720703 -0.07113281 10.91167969 -0.0625 9.9375 C-0.05798828 8.98810547 -0.05347656 8.03871094 -0.04882812 7.06054688 C-0.0370011 4.70696935 -0.02052025 2.35351523 0 0 Z " fill="#2E295E" transform="translate(95,101)"/>
<path d="M0 0 C0.66 0.33 1.32 0.66 2 1 C1.67 1.61875 1.34 2.2375 1 2.875 C-0.14193235 4.91018344 -0.14193235 4.91018344 0 7 C-1.6796875 8.2890625 -1.6796875 8.2890625 -3.875 9.625 C-4.59429687 10.07101563 -5.31359375 10.51703125 -6.0546875 10.9765625 C-8 12 -8 12 -10 12 C-10.3125 9.73828125 -10.3125 9.73828125 -10 7 C-7.8125 4.98046875 -7.8125 4.98046875 -5 3.1875 C-4.071875 2.58292969 -3.14375 1.97835937 -2.1875 1.35546875 C-1.1046875 0.68451172 -1.1046875 0.68451172 0 0 Z " fill="#EAECF7" transform="translate(123,116)"/>
<path d="M0 0 C0.33 0.99 0.66 1.98 1 3 C0.67 3.66 0.34 4.32 0 5 C0.99 5.33 1.98 5.66 3 6 C2.67 7.65 2.34 9.3 2 11 C0.02 11.66 -1.96 12.32 -4 13 C-3.67 12.01 -3.34 11.02 -3 10 C-1.68 10 -0.36 10 1 10 C-0.98 9.34 -2.96 8.68 -5 8 C-4.67 6.35 -4.34 4.7 -4 3 C-2.68 2.67 -1.36 2.34 0 2 C0 1.34 0 0.68 0 0 Z " fill="#5D5C5D" transform="translate(139,190)"/>
<path d="M0 0 C-1.89533709 1.89533709 -3.2304568 2.73802777 -5.58984375 3.91015625 C-6.64268555 4.43512695 -6.64268555 4.43512695 -7.71679688 4.97070312 C-8.44962891 5.33099609 -9.18246094 5.69128906 -9.9375 6.0625 C-10.66646484 6.42666016 -11.39542969 6.79082031 -12.14648438 7.16601562 C-15.08803397 8.62465754 -17.87843532 9.95947844 -21 11 C-20.63166685 8.58192299 -20.43687611 7.34642499 -18.48120117 5.7956543 C-17.84158447 5.47508057 -17.20196777 5.15450684 -16.54296875 4.82421875 C-15.84236328 4.47166016 -15.14175781 4.11910156 -14.41992188 3.75585938 C-13.68322266 3.40330078 -12.94652344 3.05074219 -12.1875 2.6875 C-11.46240234 2.31560547 -10.73730469 1.94371094 -9.99023438 1.56054688 C-4.03697977 -1.36433668 -4.03697977 -1.36433668 0 0 Z " fill="#373266" transform="translate(135,128)"/>
<path d="M0 0 C0.66 0 1.32 0 2 0 C2.0093457 0.62044189 2.01869141 1.24088379 2.02832031 1.88012695 C2.08200995 4.69172677 2.16565646 7.5016598 2.25 10.3125 C2.26417969 11.28896484 2.27835937 12.26542969 2.29296875 13.27148438 C2.32519531 14.20927734 2.35742188 15.14707031 2.390625 16.11328125 C2.41157227 16.97735596 2.43251953 17.84143066 2.45410156 18.73168945 C2.81511196 21.18335471 2.81511196 21.18335471 5.03808594 22.80541992 C6.0092334 23.39673706 6.0092334 23.39673706 7 24 C4.69 24 2.38 24 0 24 C0 16.08 0 8.16 0 0 Z " fill="#282560" transform="translate(85,112)"/>
<path d="M0 0 C1.09054688 0.02320312 2.18109375 0.04640625 3.3046875 0.0703125 C4.40039062 0.08835937 5.49609375 0.10640625 6.625 0.125 C7.46804687 0.14820312 8.31109375 0.17140625 9.1796875 0.1953125 C9.1796875 1.1853125 9.1796875 2.1753125 9.1796875 3.1953125 C8.0453125 3.3190625 6.9109375 3.4428125 5.7421875 3.5703125 C3.97875 3.8796875 3.97875 3.8796875 2.1796875 4.1953125 C1.8496875 4.8553125 1.5196875 5.5153125 1.1796875 6.1953125 C-0.4703125 6.1953125 -2.1203125 6.1953125 -3.8203125 6.1953125 C-4.4453125 4.3203125 -4.4453125 4.3203125 -4.8203125 2.1953125 C-2.8203125 0.1953125 -2.8203125 0.1953125 0 0 Z " fill="#767676" transform="translate(23.8203125,98.8046875)"/>
<path d="M0 0 C0.66 1.32 1.32 2.64 2 4 C2.99 4 3.98 4 5 4 C5.66 6.64 6.32 9.28 7 12 C6.01 12.33 5.02 12.66 4 13 C3.67 12.01 3.34 11.02 3 10 C2.34 9.67 1.68 9.34 1 9 C1.33 10.32 1.66 11.64 2 13 C1.01 13 0.02 13 -1 13 C-1.33 9.04 -1.66 5.08 -2 1 C-1.34 0.67 -0.68 0.34 0 0 Z " fill="#2F302E" transform="translate(119,192)"/>
<path d="M0 0 C1.9375 0.0625 1.9375 0.0625 4 1 C7 5.17857143 7 5.17857143 7 8 C5.02 8.66 3.04 9.32 1 10 C-1.59482129 7.40517871 -1.69990302 5.60116375 -2 2 C-1.34 1.34 -0.68 0.68 0 0 Z " fill="#9B999A" transform="translate(151,186)"/>
<path d="M0 0 C0.33 0 0.66 0 1 0 C1.24858198 2.77034137 1.47452879 5.53939069 1.6875 8.3125 C1.76033203 9.09818359 1.83316406 9.88386719 1.90820312 10.69335938 C1.96298828 11.45068359 2.01777344 12.20800781 2.07421875 12.98828125 C2.13182373 13.68477783 2.18942871 14.38127441 2.2487793 15.09887695 C1.92059108 17.60682753 0.77694777 18.27077077 -1 20 C-1.37674518 22.79251583 -1.60191941 25.38779201 -1.6875 28.1875 C-1.72166016 28.93708984 -1.75582031 29.68667969 -1.79101562 30.45898438 C-1.87334294 32.30546838 -1.93835281 34.15270994 -2 36 C-2.33 36 -2.66 36 -3 36 C-3.84023188 31.64667264 -4.10770995 27.55557481 -4.0625 23.125 C-4.05347656 21.97257812 -4.04445313 20.82015625 -4.03515625 19.6328125 C-4.02355469 18.76398438 -4.01195313 17.89515625 -4 17 C-3.01 17.33 -2.02 17.66 -1 18 C-0.505 9.09 -0.505 9.09 0 0 Z " fill="#EBD4DF" transform="translate(127,76)"/>
<path d="M0 0 C2 1 2 1 3 2 C3.04063832 3.66617115 3.042721 5.33388095 3 7 C4.98 6.67 6.96 6.34 9 6 C9.33 6.99 9.66 7.98 10 9 C8.88625 9.474375 7.7725 9.94875 6.625 10.4375 C4.73289006 11.25306463 2.84287291 12.07856355 1 13 C1.04125 12.29875 1.0825 11.5975 1.125 10.875 C1.12734469 7.89554874 1.12734469 7.89554874 -0.0625 4.8125 C-0.371875 3.884375 -0.68125 2.95625 -1 2 C-0.67 1.34 -0.34 0.68 0 0 Z " fill="#AEAEAE" transform="translate(77,27)"/>
<path d="M0 0 C1.32 0.66 2.64 1.32 4 2 C4.36923077 9.38461538 4.36923077 9.38461538 2.5 12.5 C2.005 12.995 1.51 13.49 1 14 C-0.65 13.67 -2.3 13.34 -4 13 C-4 12.34 -4 11.68 -4 11 C-1.525 11.495 -1.525 11.495 1 12 C1 11.01 1 10.02 1 9 C-0.32 9 -1.64 9 -3 9 C-3 7.35 -3 5.7 -3 4 C-2.01 4.33 -1.02 4.66 0 5 C0 5.99 0 6.98 0 8 C0.66 8 1.32 8 2 8 C1.47731534 5.23723823 0.89130413 2.6739124 0 0 Z " fill="#7F7F7F" transform="translate(99,191)"/>
<path d="M0 0 C1.9375 0.3125 1.9375 0.3125 4 1 C4.33 1.99 4.66 2.98 5 4 C3.37660195 5.70884005 1.70680947 7.37446717 0 9 C-0.66 9 -1.32 9 -2 9 C-2 8.34 -2 7.68 -2 7 C-2.99 7 -3.98 7 -5 7 C-4.67 5.68 -4.34 4.36 -4 3 C-2.68 2.67 -1.36 2.34 0 2 C0 1.34 0 0.68 0 0 Z " fill="#8E8E8E" transform="translate(51,171)"/>
<path d="M0 0 C0.66 0 1.32 0 2 0 C2 1.32 2 2.64 2 4 C3.32 4 4.64 4 6 4 C6 2.68 6 1.36 6 0 C6.66 0 7.32 0 8 0 C8 3.63 8 7.26 8 11 C7.34 11 6.68 11 6 11 C6 9.35 6 7.7 6 6 C4.68 6 3.36 6 2 6 C2 7.65 2 9.3 2 11 C1.34 11 0.68 11 0 11 C0 7.37 0 3.74 0 0 Z " fill="#FBCEC1" transform="translate(138,153)"/>
<path d="M0 0 C0.66 0.33 1.32 0.66 2 1 C2 1.66 2 2.32 2 3 C2.66 3.33 3.32 3.66 4 4 C4 4.99 4 5.98 4 7 C-1.25714286 11 -1.25714286 11 -4 11 C-4 10.01 -4 9.02 -4 8 C-4.99 8 -5.98 8 -7 8 C-6.67 7.01 -6.34 6.02 -6 5 C-5.34 5 -4.68 5 -4 5 C-2.65117592 4.36525925 -1.3153341 3.70151152 0 3 C0 2.01 0 1.02 0 0 Z " fill="#D7D7D7" transform="translate(184,57)"/>
<path d="M0 0 C1.32 0.33 2.64 0.66 4 1 C4.33 2.65 4.66 4.3 5 6 C1.12315913 7.19287411 -1.91621923 8 -6 8 C-6 9.65 -6 11.3 -6 13 C-7.77706209 10.33440687 -8.87548273 7.9719385 -10 5 C-7.525 5.495 -7.525 5.495 -5 6 C-4.67 5.34 -4.34 4.68 -4 4 C-4 4.66 -4 5.32 -4 6 C-3.34 6 -2.68 6 -2 6 C-1.67 5.01 -1.34 4.02 -1 3 C-0.01 3.33 0.98 3.66 2 4 C1.34 2.68 0.68 1.36 0 0 Z " fill="#424242" transform="translate(35,138)"/>
<path d="M0 0 C2.69082872 0.17635452 5.32851446 0.61835921 8 1 C7.67 2.98 7.34 4.96 7 7 C4.69 6.67 2.38 6.34 0 6 C-0.38218767 4.34385343 -0.71395102 2.67542976 -1 1 C-0.67 0.67 -0.34 0.34 0 0 Z " fill="#5F5F5F" transform="translate(27,89)"/>
<path d="M0 0 C1.65 0.33 3.3 0.66 5 1 C4.34 3.97 3.68 6.94 3 10 C2.34 10 1.68 10 1 10 C1 9.34 1 8.68 1 8 C-0.32 8 -1.64 8 -3 8 C-2.67 6.35 -2.34 4.7 -2 3 C-1.34 3 -0.68 3 0 3 C0 2.01 0 1.02 0 0 Z " fill="#676768" transform="translate(146,30)"/>
<path d="M0 0 C0.99 0.66 1.98 1.32 3 2 C2.01 3.485 2.01 3.485 1 5 C1.99 5 2.98 5 4 5 C3.46930939 8.82097239 2.50298434 11.06171403 0 14 C-0.66 13.67 -1.32 13.34 -2 13 C-0.68 10.69 0.64 8.38 2 6 C1.01 6 0.02 6 -1 6 C-1.66 7.98 -2.32 9.96 -3 12 C-3.66 12 -4.32 12 -5 12 C-4.42365861 7.24518354 -2.44931479 4.02951788 0 0 Z " fill="#39393A" transform="translate(156,30)"/>
<path d="M0 0 C3 1 3 1 4.6875 3.875 C6 7 6 7 6 10 C5.34 10 4.68 10 4 10 C3.67 9.34 3.34 8.68 3 8 C0.97536745 7.34786708 0.97536745 7.34786708 -1 7 C-1.33 7.99 -1.66 8.98 -2 10 C-2.66 10 -3.32 10 -4 10 C-3.52449439 8.51965236 -3.04448784 7.04074979 -2.5625 5.5625 C-2.29566406 4.73878906 -2.02882813 3.91507813 -1.75390625 3.06640625 C-1 1 -1 1 0 0 Z " fill="#F6C6C1" transform="translate(129,158)"/>
<path d="M0 0 C4.95 1.98 4.95 1.98 10 4 C10 5.32 10 6.64 10 8 C4.93001981 7.34580901 0.58009223 5.1453591 -4 3 C-2.68 2.67 -1.36 2.34 0 2 C0 1.34 0 0.68 0 0 Z " fill="#37336F" transform="translate(95,147)"/>
<path d="M0 0 C0.33 0 0.66 0 1 0 C1 1.98 1 3.96 1 6 C-0.74029302 6.89415055 -2.4927015 7.76475178 -4.25 8.625 C-5.22453125 9.11226562 -6.1990625 9.59953125 -7.203125 10.1015625 C-10 11 -10 11 -12.359375 10.1484375 C-12.90078125 9.76945313 -13.4421875 9.39046875 -14 9 C-12.04414675 7.99515796 -10.08523763 6.99626195 -8.125 6 C-7.03445312 5.443125 -5.94390625 4.88625 -4.8203125 4.3125 C-2 3 -2 3 0 3 C0 2.01 0 1.02 0 0 Z " fill="#302964" transform="translate(139,130)"/>
<path d="M0 0 C0 0.33 0 0.66 0 1 C-2.31 1 -4.62 1 -7 1 C-7 3.97 -7 6.94 -7 10 C-7.99 10 -8.98 10 -10 10 C-10 6.37 -10 2.74 -10 -1 C-5.59232396 -2.10191901 -4.1077065 -1.58706842 0 0 Z " fill="#E88B7F" transform="translate(104,158)"/>
<path d="M0 0 C0.33 0.99 0.66 1.98 1 3 C1.66 3 2.32 3 3 3 C3 3.66 3 4.32 3 5 C2.34 5 1.68 5 1 5 C1.2784375 5.9590625 1.2784375 5.9590625 1.5625 6.9375 C1.706875 7.618125 1.85125 8.29875 2 9 C0.41727399 10.58272601 -1.38034003 10.34735747 -3.5625 10.5625 C-4.38878906 10.64628906 -5.21507812 10.73007813 -6.06640625 10.81640625 C-6.70449219 10.87699219 -7.34257812 10.93757813 -8 11 C-8 10.34 -8 9.68 -8 9 C-7.01 9 -6.02 9 -5 9 C-4.34 7.35 -3.68 5.7 -3 4 C-2.01 4 -1.02 4 0 4 C0 2.68 0 1.36 0 0 Z " fill="#DCDCDC" transform="translate(201,91)"/>
<path d="M0 0 C6.625 0.75 6.625 0.75 10 3 C9.67 3.66 9.34 4.32 9 5 C6.36 4.01 3.72 3.02 1 2 C1 2.66 1 3.32 1 4 C3.31 4.66 5.62 5.32 8 6 C8 6.66 8 7.32 8 8 C6.5608866 7.71640113 5.12374482 7.42278601 3.6875 7.125 C2.88699219 6.96257812 2.08648437 6.80015625 1.26171875 6.6328125 C-1 6 -1 6 -4 4 C-4 3.34 -4 2.68 -4 2 C-2.68 2.33 -1.36 2.66 0 3 C0 2.01 0 1.02 0 0 Z " fill="#313131" transform="translate(29,80)"/>
<path d="M0 0 C1.65 0 3.3 0 5 0 C5 3.3 5 6.6 5 10 C1 8 1 8 0 7 C-0.04092937 4.66702567 -0.04241723 2.33294775 0 0 Z " fill="#FEF8F7" transform="translate(106,100)"/>
<path d="M0 0 C1.65 0.33 3.3 0.66 5 1 C5.33 3.64 5.66 6.28 6 9 C5.01 9 4.02 9 3 9 C2.67 7.68 2.34 6.36 2 5 C2 6.32 2 7.64 2 9 C1.01 9 0.02 9 -1 9 C-0.67 6.03 -0.34 3.06 0 0 Z " fill="#2D2D2C" transform="translate(108,196)"/>
<path d="M0 0 C1.65 0 3.3 0 5 0 C5.33 0.99 5.66 1.98 6 3 C5.01 3.495 5.01 3.495 4 4 C3.53476937 5.89533342 3.53476937 5.89533342 3.375 8.0625 C3.189375 10.0115625 3.189375 10.0115625 3 12 C0.9375 11.0625 0.9375 11.0625 -1 9 C-1.05989746 5.92889402 -0.58052245 3.00988272 0 0 Z " fill="#DD3B25" transform="translate(97,159)"/>
<path d="M0 0 C-0.33 1.65 -0.66 3.3 -1 5 C-2.32 5 -3.64 5 -5 5 C-5 5.66 -5 6.32 -5 7 C-6.32 6.67 -7.64 6.34 -9 6 C-8.67 4.35 -8.34 2.7 -8 1 C-5.07175348 0.02391783 -3.04386724 -0.08226668 0 0 Z " fill="#D7D7D7" transform="translate(200,85)"/>
<path d="M0 0 C0.66 0.33 1.32 0.66 2 1 C1.34 2.32 0.68 3.64 0 5 C0.66 5.33 1.32 5.66 2 6 C1.01 6.33 0.02 6.66 -1 7 C-1.33 7.99 -1.66 8.98 -2 10 C-3.98 9.34 -5.96 8.68 -8 8 C-8 7.34 -8 6.68 -8 6 C-6.34928604 4.97388051 -4.68029994 3.97691857 -3 3 C-1.24850835 1.41754725 -1.24850835 1.41754725 0 0 Z " fill="#C2C2C2" transform="translate(174,43)"/>
<path d="M0 0 C1.65 0.33 3.3 0.66 5 1 C5 1.66 5 2.32 5 3 C4.01 3.495 4.01 3.495 3 4 C2.08514427 6.80478195 2.08514427 6.80478195 1.375 10.0625 C0.98441406 11.71958984 0.98441406 11.71958984 0.5859375 13.41015625 C0.39257812 14.26480469 0.19921875 15.11945313 0 16 C-0.103125 15.360625 -0.20625 14.72125 -0.3125 14.0625 C-0.539375 13.381875 -0.76625 12.70125 -1 12 C-1.99 11.67 -2.98 11.34 -4 11 C-3.01 11 -2.02 11 -1 11 C-1.66 9.02 -2.32 7.04 -3 5 C-2.34 5 -1.68 5 -1 5 C-0.67 3.35 -0.34 1.7 0 0 Z " fill="#333434" transform="translate(93,190)"/>
<path d="M0 0 C2.33936818 2.12669835 3.80653848 4.06224856 5 7 C5 7.99 5 8.98 5 10 C-0.94 10 -6.88 10 -13 10 C-13 9.67 -13 9.34 -13 9 C-6.565 8.505 -6.565 8.505 0 8 C0 5.36 0 2.72 0 0 Z " fill="#D56454" transform="translate(117,166)"/>
<path d="M0 0 C2.67576692 1.00617682 3.7785108 1.54214546 5.046875 4.1640625 C5.39492187 5.38222656 5.39492187 5.38222656 5.75 6.625 C5.99234375 7.44226562 6.2346875 8.25953125 6.484375 9.1015625 C6.73960938 10.04128906 6.73960938 10.04128906 7 11 C6.01 10.67 5.02 10.34 4 10 C4 9.34 4 8.68 4 8 C2.02 8.33 0.04 8.66 -2 9 C-2.66 7.02 -3.32 5.04 -4 3 C-3.01 2.67 -2.02 2.34 -1 2 C-1 3.65 -1 5.3 -1 7 C-0.01 6.34 0.98 5.68 2 5 C1.34 3.35 0.68 1.7 0 0 Z " fill="#393939" transform="translate(82,25)"/>
<path d="M0 0 C1.33332095 2.6666419 0.67102033 4.16680303 0 7 C1.32 7 2.64 7 4 7 C4 7.99 4 8.98 4 10 C2.35 9.67 0.7 9.34 -1 9 C-1 10.65 -1 12.3 -1 14 C-2.32 14 -3.64 14 -5 14 C-5 12.68 -5 11.36 -5 10 C-5.99 9.67 -6.98 9.34 -8 9 C-6.68 9 -5.36 9 -4 9 C-3.67 9.66 -3.34 10.32 -3 11 C-2.86722656 10.28972656 -2.73445313 9.57945312 -2.59765625 8.84765625 C-2.42105469 7.92855469 -2.24445313 7.00945312 -2.0625 6.0625 C-1.88847656 5.14597656 -1.71445313 4.22945312 -1.53515625 3.28515625 C-1 1 -1 1 0 0 Z " fill="#B7B7B7" transform="translate(96,193)"/>
<path d="M0 0 C1.65 0.33 3.3 0.66 5 1 C4.42647107 4.87132028 2.51295648 7.08172796 0 10 C-1 8 -2 6 -3 4 C-2.01 2.68 -1.02 1.36 0 0 Z " fill="#E2E2E2" transform="translate(70,185)"/>
<path d="M0 0 C2.64 1.98 5.28 3.96 8 6 C7.01 6.495 7.01 6.495 6 7 C6 7.66 6 8.32 6 9 C2.65980694 8.40353695 0.49529367 7.31705841 -2 5 C-2 4.01 -2 3.02 -2 2 C-1.34 2 -0.68 2 0 2 C0 1.34 0 0.68 0 0 Z " fill="#D0CFD0" transform="translate(47,51)"/>
<path d="M0 0 C0.33 0.66 0.66 1.32 1 2 C1.78375 2.144375 2.5675 2.28875 3.375 2.4375 C6.25125721 3.05384083 7.16384707 3.77728856 9 6 C8.34 6 7.68 6 7 6 C7 6.99 7 7.98 7 9 C4.0280615 7.87548273 1.66559313 6.77706209 -1 5 C-0.67 3.35 -0.34 1.7 0 0 Z " fill="#888888" transform="translate(37,63)"/>
<path d="M0 0 C2.97 0.495 2.97 0.495 6 1 C6 3.97 6 6.94 6 10 C5.01 10 4.02 10 3 10 C3.33 7.36 3.66 4.72 4 2 C3.01 2.495 3.01 2.495 2 3 C1.34227572 6.02934491 1.34227572 6.02934491 1 9 C0.34 9 -0.32 9 -1 9 C-0.67 6.03 -0.34 3.06 0 0 Z " fill="#383838" transform="translate(126,24)"/>
<path d="M0 0 C2.97 0.33 5.94 0.66 9 1 C8.67 1.66 8.34 2.32 8 3 C7.34 3 6.68 3 6 3 C6 5.31 6 7.62 6 10 C2.63408573 7.27521226 1.55773724 3.93143208 0 0 Z " fill="#CE4338" transform="translate(102,159)"/>
<path d="M0 0 C0.66 0 1.32 0 2 0 C2 0.99 2 1.98 2 3 C3.32 3 4.64 3 6 3 C6.33 2.34 6.66 1.68 7 1 C7 2.32 7 3.64 7 5 C5.02 5 3.04 5 1 5 C0.67 5.66 0.34 6.32 0 7 C0 6.01 0 5.02 0 4 C-1.98 4.33 -3.96 4.66 -6 5 C-5.67 4.01 -5.34 3.02 -5 2 C-3.35 2 -1.7 2 0 2 C0 1.34 0 0.68 0 0 Z " fill="#323231" transform="translate(25,103)"/>
<path d="M0 0 C2.03125 0.05078125 2.03125 0.05078125 4.5 0.3125 C5.3146875 0.39113281 6.129375 0.46976563 6.96875 0.55078125 C7.97421875 0.77314453 7.97421875 0.77314453 9 1 C9.33 1.66 9.66 2.32 10 3 C9.360625 3.28875 8.72125 3.5775 8.0625 3.875 C5.84793921 4.82823451 5.84793921 4.82823451 5 7 C3.68 6.67 2.36 6.34 1 6 C1.66 6 2.32 6 3 6 C3.33 4.68 3.66 3.36 4 2 C3.01 2 2.02 2 1 2 C0.67 2.99 0.34 3.98 0 5 C-0.5625 3.0625 -0.5625 3.0625 -1 1 C-0.67 0.67 -0.34 0.34 0 0 Z " fill="#3C3C3C" transform="translate(188,139)"/>
<path d="M0 0 C0.81210938 0.59554687 0.81210938 0.59554687 1.640625 1.203125 C-0.29207459 2.37772692 -2.23070813 3.54256972 -4.171875 4.703125 C-5.25082031 5.3528125 -6.32976562 6.0025 -7.44140625 6.671875 C-10.359375 8.203125 -10.359375 8.203125 -13.359375 8.203125 C-13.359375 7.543125 -13.359375 6.883125 -13.359375 6.203125 C-11.09375 4.40625 -11.09375 4.40625 -8.109375 2.453125 C-6.64757812 1.47085938 -6.64757812 1.47085938 -5.15625 0.46875 C-2.359375 -0.796875 -2.359375 -0.796875 0 0 Z " fill="#343164" transform="translate(126.359375,121.796875)"/>
<path d="M0 0 C0.33 0.99 0.66 1.98 1 3 C-1.97 4.32 -4.94 5.64 -8 7 C-8.66 6.34 -9.32 5.68 -10 5 C-10 4.34 -10 3.68 -10 3 C-3.375 0 -3.375 0 0 0 Z " fill="#3B3670" transform="translate(143,142)"/>
<path d="M0 0 C0.66 0 1.32 0 2 0 C1.75 1.875 1.75 1.875 1 4 C-1 5.125 -1 5.125 -3 6 C-3.33 6.66 -3.66 7.32 -4 8 C-3.05125 7.484375 -2.1025 6.96875 -1.125 6.4375 C-0.09375 5.963125 0.9375 5.48875 2 5 C2.66 5.33 3.32 5.66 4 6 C1.75 8.0625 1.75 8.0625 -1 10 C-3.3125 9.75 -3.3125 9.75 -5 9 C-5 7.35 -5 5.7 -5 4 C-3.35 3.34 -1.7 2.68 0 2 C0 1.34 0 0.68 0 0 Z " fill="#262626" transform="translate(189,65)"/>
<path d="M0 0 C2.79828356 0.38597015 3.8205884 0.80136573 5.75 2.9375 C7 5 7 5 7 7 C6.34 7 5.68 7 5 7 C5 6.34 5 5.68 5 5 C4.01 5.33 3.02 5.66 2 6 C2 6.66 2 7.32 2 8 C2.66 8 3.32 8 4 8 C4 8.66 4 9.32 4 10 C2.68 9.34 1.36 8.68 0 8 C0 6.68 0 5.36 0 4 C0.66 4 1.32 4 2 4 C2 3.34 2 2.68 2 2 C0.02 2.99 0.02 2.99 -2 4 C-1.34 2.68 -0.68 1.36 0 0 Z " fill="#424242" transform="translate(58,41)"/>
<path d="M0 0 C3.4375 0.1875 3.4375 0.1875 7 1 C8.4375 3.0625 8.4375 3.0625 9 5 C8.4225 4.67 7.845 4.34 7.25 4 C4.80116138 2.72924102 4.80116138 2.72924102 1 3 C1 3.66 1 4.32 1 5 C2.32 5 3.64 5 5 5 C5 5.99 5 6.98 5 8 C0.125 7.125 0.125 7.125 -1 6 C-1.125 3.5 -1.125 3.5 -1 1 C-0.67 0.67 -0.34 0.34 0 0 Z " fill="#2C2C2C" transform="translate(178,159)"/>
<path d="M0 0 C0.66 0.66 1.32 1.32 2 2 C0.02 2.66 -1.96 3.32 -4 4 C-2.35 4 -0.7 4 1 4 C1 4.99 1 5.98 1 7 C-3.49652778 7.36458333 -3.49652778 7.36458333 -5.8125 5.6875 C-7 4 -7 4 -7 1 C-3.625 0.375 -3.625 0.375 0 0 Z " fill="#3B3B3B" transform="translate(202,109)"/>
<path d="M0 0 C0.33 0 0.66 0 1 0 C1 8.91 1 17.82 1 27 C0.01 27.33 -0.98 27.66 -2 28 C-2.66 27.01 -3.32 26.02 -4 25 C-3.01 25 -2.02 25 -1 25 C-0.67 16.75 -0.34 8.5 0 0 Z " fill="#F8E1DD" transform="translate(101,68)"/>
<path d="M0 0 C3.465 1.485 3.465 1.485 7 3 C6.01 3.33 5.02 3.66 4 4 C3.67 7.3 3.34 10.6 3 14 C2.34 13.67 1.68 13.34 1 13 C1.33 10.03 1.66 7.06 2 4 C1.34 4 0.68 4 0 4 C0 6.64 0 9.28 0 12 C-0.33 12 -0.66 12 -1 12 C-1.02712066 10.56260487 -1.04645067 9.12506137 -1.0625 7.6875 C-1.07410156 6.88699219 -1.08570312 6.08648437 -1.09765625 5.26171875 C-1 3 -1 3 0 0 Z " fill="#CC473E" transform="translate(84,149)"/>
<path d="M0 0 C2 0 2 0 3.64453125 1.640625 C5.38053347 4.6623695 5.13547312 6.32911435 4.6875 9.75 C4.50767578 11.22726563 4.50767578 11.22726563 4.32421875 12.734375 C4.21722656 13.48203125 4.11023438 14.2296875 4 15 C2.68 15.33 1.36 15.66 0 16 C0 10.72 0 5.44 0 0 Z " fill="#DA635D" transform="translate(110,95)"/>
<path d="M0 0 C0.99 0.99 1.98 1.98 3 3 C1.71034824 4.37562854 0.37310707 5.70766393 -1 7 C-1.66 7 -2.32 7 -3 7 C-3 7.66 -3 8.32 -3 9 C-3.66 9 -4.32 9 -5 9 C-6.4606285 6.35261084 -7 5.10551666 -7 2 C-6.01 2.33 -5.02 2.66 -4 3 C-4.33 3.66 -4.66 4.32 -5 5 C-3.35 4.67 -1.7 4.34 0 4 C0 2.68 0 1.36 0 0 Z " fill="#333333" transform="translate(41,157)"/>
<path d="M0 0 C1.32 0 2.64 0 4 0 C4 1.32 4 2.64 4 4 C2.68 4.33 1.36 4.66 0 5 C1.65 5 3.3 5 5 5 C3.68 5.33 2.36 5.66 1 6 C1 6.66 1 7.32 1 8 C-1.97 7.505 -1.97 7.505 -5 7 C-3.68 6.67 -2.36 6.34 -1 6 C-1.020625 5.195625 -1.04125 4.39125 -1.0625 3.5625 C-1 1 -1 1 0 0 Z " fill="#C7C6C6" transform="translate(184,152)"/>
<path d="M0 0 C0 0.66 0 1.32 0 2 C-1.32 2 -2.64 2 -4 2 C-4.33 2.99 -4.66 3.98 -5 5 C-7.64 5 -10.28 5 -13 5 C-12.67 4.01 -12.34 3.02 -12 2 C-10.0390625 1.26953125 -10.0390625 1.26953125 -7.625 0.8125 C-6.83351562 0.65394531 -6.04203125 0.49539062 -5.2265625 0.33203125 C-3 0 -3 0 0 0 Z " fill="#E1E1E1" transform="translate(207,99)"/>
<path d="M0 0 C4.455 0.99 4.455 0.99 9 2 C8.34 3.98 7.68 5.96 7 8 C5.35 7.67 3.7 7.34 2 7 C3.32 6.67 4.64 6.34 6 6 C4.77190909 4.35444301 4.77190909 4.35444301 3 3 C0.83700789 3.22757731 0.83700789 3.22757731 -1 4 C-0.67 2.68 -0.34 1.36 0 0 Z " fill="#3D3D3D" transform="translate(33,72)"/>
<path d="M0 0 C0.66 0.33 1.32 0.66 2 1 C1.34 1.66 0.68 2.32 0 3 C0.33 3.66 0.66 4.32 1 5 C0.34 5 -0.32 5 -1 5 C-1.309375 5.78375 -1.61875 6.5675 -1.9375 7.375 C-3 10 -3 10 -4 12 C-4.99 11.67 -5.98 11.34 -7 11 C-6.21258141 9.53936857 -5.4199095 8.08156827 -4.625 6.625 C-4.18414062 5.81289062 -3.74328125 5.00078125 -3.2890625 4.1640625 C-2 2 -2 2 0 0 Z " fill="#D5D5D5" transform="translate(69,179)"/>
<path d="M0 0 C0.33 0 0.66 0 1 0 C2.35520942 8.43241416 1.67499048 16.53665785 1 25 C0.67 25 0.34 25 0 25 C-0.19676145 21.39627603 -0.38081639 17.7920131 -0.5625 14.1875 C-0.61857422 13.16333984 -0.67464844 12.13917969 -0.73242188 11.08398438 C-0.78076172 10.10107422 -0.82910156 9.11816406 -0.87890625 8.10546875 C-0.9260376 7.19949951 -0.97316895 6.29353027 -1.02172852 5.36010742 C-1 3 -1 3 0 0 Z " fill="#837EA3" transform="translate(185,95)"/>
<path d="M0 0 C3.32901247 2.21934164 3.75023244 3.34683329 5 7 C4.34 7 3.68 7 3 7 C3 10.96 3 14.92 3 19 C2.67 19 2.34 19 2 19 C1.66440045 16.39610703 1.33143142 13.7919239 1 11.1875 C0.90460938 10.44951172 0.80921875 9.71152344 0.7109375 8.95117188 C0.33015323 5.94569605 0 3.03285559 0 0 Z " fill="#343261" transform="translate(128,93)"/>
<path d="M0 0 C1.9375 0.8125 1.9375 0.8125 4 2 C4.33 2.99 4.66 3.98 5 5 C2.03 7.475 2.03 7.475 -1 10 C-1.33 9.01 -1.66 8.02 -2 7 C-1.34 6.34 -0.68 5.68 0 5 C-0.40929986 2.94603274 -0.40929986 2.94603274 -1 1 C-0.67 0.67 -0.34 0.34 0 0 Z " fill="#D0D0D0" transform="translate(168,38)"/>
<path d="M0 0 C0.99 0 1.98 0 3 0 C1.80100302 3.0831351 0.52299523 6.06279492 -1 9 C-2.32 9 -3.64 9 -5 9 C-5.33 8.01 -5.66 7.02 -6 6 C-5.34 5.34 -4.68 4.68 -4 4 C-4 4.66 -4 5.32 -4 6 C-3.34 6 -2.68 6 -2 6 C-1.34 4.02 -0.68 2.04 0 0 Z " fill="#DADAD8" transform="translate(155,36)"/>
<path d="M0 0 C0 0.99 0 1.98 0 3 C0.66 3 1.32 3 2 3 C2 3.66 2 4.32 2 5 C1.401875 4.814375 0.80375 4.62875 0.1875 4.4375 C-2.16408762 3.77906313 -2.16408762 3.77906313 -5 5 C-5 5.99 -5 6.98 -5 8 C-5.99 7.67 -6.98 7.34 -8 7 C-6.56389554 2.69168661 -4.72692072 0 0 0 Z " fill="#4B4B4B" transform="translate(48,164)"/>
<path d="M0 0 C0.33 0 0.66 0 1 0 C1 1.65 1 3.3 1 5 C-0.65 5.66 -2.3 6.32 -4 7 C-4 8.65 -4 10.3 -4 12 C-4.33 12 -4.66 12 -5 12 C-5 10.35 -5 8.7 -5 7 C-5.66 6.67 -6.32 6.34 -7 6 C-2.25 2 -2.25 2 0 2 C0 1.34 0 0.68 0 0 Z " fill="#D8D8D8" transform="translate(188,62)"/>
<path d="M0 0 C7.40640809 -0.4856661 7.40640809 -0.4856661 10.0625 1.6875 C11.22167778 4.54680518 10.88910615 6.09019806 10 9 C8.68 9 7.36 9 6 9 C6 8.34 6 7.68 6 7 C6.99 7 7.98 7 9 7 C7.91744593 4.44309577 7.91744593 4.44309577 6 2 C2.9042893 1.10792821 2.9042893 1.10792821 0 1 C0 0.67 0 0.34 0 0 Z " fill="#232323" transform="translate(61,36)"/>
<path d="M0 0 C2.8125 -0.25 2.8125 -0.25 6 0 C8.04040776 2.04040776 9 3.08325244 9 6 C8.01 6 7.02 6 6 6 C5.67 6.66 5.34 7.32 5 8 C3.5393715 5.35261084 3 4.10551666 3 1 C2.01 0.67 1.02 0.34 0 0 Z " fill="#909090" transform="translate(61,37)"/>
<path d="M0 0 C5.32697239 1.45281065 8.36402802 5.08111378 12 9 C11.34 9.66 10.68 10.32 10 11 C8.33035479 9.35718838 6.6643536 7.71067239 5 6.0625 C4.071875 5.14597656 3.14375 4.22945312 2.1875 3.28515625 C0 1 0 1 0 0 Z " fill="#4C466F" transform="translate(158,55)"/>
<path d="M0 0 C0.33 0 0.66 0 1 0 C1 4.95 1 9.9 1 15 C3.475 15.99 3.475 15.99 6 17 C6 17.66 6 18.32 6 19 C4.02 18.34 2.04 17.68 0 17 C0 11.39 0 5.78 0 0 Z " fill="#262263" transform="translate(91,112)"/>
<path d="M0 0 C0.33 0.66 0.66 1.32 1 2 C1.99 2.33 2.98 2.66 4 3 C3.67 3.66 3.34 4.32 3 5 C3.24680201 7.56740432 3.24680201 7.56740432 4 10 C4.66 10.33 5.32 10.66 6 11 C4.68 11 3.36 11 2 11 C-1.1097561 3.32926829 -1.1097561 3.32926829 0 0 Z " fill="#403F3F" transform="translate(143,187)"/>
<path d="M0 0 C0.66 0 1.32 0 2 0 C2 2.97 2 5.94 2 9 C0.35 9.33 -1.3 9.66 -3 10 C-3.33 9.01 -3.66 8.02 -4 7 C-2.68 7.33 -1.36 7.66 0 8 C0 5.36 0 2.72 0 0 Z " fill="#FCCEC8" transform="translate(84,153)"/>
<path d="M0 0 C2.31 0 4.62 0 7 0 C6.67 0.99 6.34 1.98 6 3 C3.66666667 3.66666667 1.33333333 4.33333333 -1 5 C-1.33 5.99 -1.66 6.98 -2 8 C-2 4.23312136 -1.76462683 3.08809695 0 0 Z " fill="#555555" transform="translate(33,148)"/>
<path d="M0 0 C2.46800047 1.15173355 4.04783565 2.04783565 6 4 C6.125 7.125 6.125 7.125 6 10 C5.34 10 4.68 10 4 10 C3.67 8.35 3.34 6.7 3 5 C2.01 5 1.02 5 0 5 C0 3.35 0 1.7 0 0 Z " fill="#BD4237" transform="translate(121,63)"/>
<path d="M0 0 C0.13277344 0.69867187 0.26554687 1.39734375 0.40234375 2.1171875 C0.57894531 3.02726562 0.75554687 3.93734375 0.9375 4.875 C1.19853516 6.23238281 1.19853516 6.23238281 1.46484375 7.6171875 C1.89963701 9.99956317 1.89963701 9.99956317 3 12 C1.68 12 0.36 12 -1 12 C-1.66 8.37 -2.32 4.74 -3 1 C-1 0 -1 0 0 0 Z " fill="#363636" transform="translate(92,22)"/>
<path d="M0 0 C-0.33 1.32 -0.66 2.64 -1 4 C-1.66 3.67 -2.32 3.34 -3 3 C-2.67 2.34 -2.34 1.68 -2 1 C-3.65 1.33 -5.3 1.66 -7 2 C-7 2.99 -7 3.98 -7 5 C-7.66 5 -8.32 5 -9 5 C-9 3.68 -9 2.36 -9 1 C-5.64919071 -1.10976881 -3.77897651 -1.0497157 0 0 Z " fill="#2E2F2E" transform="translate(196,76)"/>
<path d="M0 0 C2.88575819 0.39803561 3.82189513 0.79009069 5.75 3.0625 C6.1625 3.701875 6.575 4.34125 7 5 C4.03 7.475 4.03 7.475 1 10 C0.34 9.67 -0.32 9.34 -1 9 C0.32 7.35 1.64 5.7 3 4 C2.01 2.68 1.02 1.36 0 0 Z " fill="#282828" transform="translate(169,38)"/>
<path d="M0 0 C2.31 0 4.62 0 7 0 C6.75 1.875 6.75 1.875 6 4 C3.9375 5.25 3.9375 5.25 2 6 C1.34 4.02 0.68 2.04 0 0 Z " fill="#D0D0D0" transform="translate(105,20)"/>
<path d="M0 0 C0.99 0.66 1.98 1.32 3 2 C1.02 4.97 -0.96 7.94 -3 11 C-3.99 10.67 -4.98 10.34 -6 10 C-4.02 6.7 -2.04 3.4 0 0 Z " fill="#2F2F2F" transform="translate(66,178)"/>
<path d="M0 0 C1.32 0 2.64 0 4 0 C4 0.99 4 1.98 4 3 C2.68 3.33 1.36 3.66 0 4 C-0.33 5.32 -0.66 6.64 -1 8 C-1.99 7.67 -2.98 7.34 -4 7 C-4 6.01 -4 5.02 -4 4 C-3.34 4 -2.68 4 -2 4 C-1.34 2.68 -0.68 1.36 0 0 Z " fill="#323232" transform="translate(58,178)"/>
<path d="M0 0 C0.33 0 0.66 0 1 0 C1.33 4.29 1.66 8.58 2 13 C1.01 12.67 0.02 12.34 -1 12 C-1 10.35 -1 8.7 -1 7 C-1.66 6.67 -2.32 6.34 -3 6 C-3 5.01 -3 4.02 -3 3 C-2.34 3 -1.68 3 -1 3 C-0.67 2.01 -0.34 1.02 0 0 Z " fill="#5A577F" transform="translate(112,124)"/>
<path d="M0 0 C0.66 0.33 1.32 0.66 2 1 C1.67 4.3 1.34 7.6 1 11 C0.34 11 -0.32 11 -1 11 C-1.02688151 9.35425434 -1.04634123 7.70838587 -1.0625 6.0625 C-1.07410156 5.14597656 -1.08570312 4.22945312 -1.09765625 3.28515625 C-1 1 -1 1 0 0 Z " fill="#FEC4B7" transform="translate(116,162)"/>
<path d="M0 0 C0.66 0.66 1.32 1.32 2 2 C-0.64 4.64 -3.28 7.28 -6 10 C-6.66 9.34 -7.32 8.68 -8 8 C-6.625 6.5 -6.625 6.5 -5 5 C-4.34 5 -3.68 5 -3 5 C-3 4.34 -3 3.68 -3 3 C-2.34 3 -1.68 3 -1 3 C-0.67 2.01 -0.34 1.02 0 0 Z " fill="#4B4672" transform="translate(167,161)"/>
<path d="M0 0 C2.475 0.99 2.475 0.99 5 2 C5 4.64 5 7.28 5 10 C3.68 10.33 2.36 10.66 1 11 C1.66 8.69 2.32 6.38 3 4 C1.68 3.34 0.36 2.68 -1 2 C-0.67 1.34 -0.34 0.68 0 0 Z " fill="#484476" transform="translate(109,135)"/>
<path d="M0 0 C-0.66 0 -1.32 0 -2 0 C-2.33 0.66 -2.66 1.32 -3 2 C-5.64 2 -8.28 2 -11 2 C-11 1.01 -11 0.02 -11 -1 C-3.375 -2.25 -3.375 -2.25 0 0 Z " fill="#2F2F2F" transform="translate(205,105)"/>
<path d="M0 0 C0.99 0 1.98 0 3 0 C3 1.98 3 3.96 3 6 C2.34 6 1.68 6 1 6 C0.67 6.66 0.34 7.32 0 8 C-0.38063221 5.6739143 -0.71269945 3.33944736 -1 1 C-0.67 0.67 -0.34 0.34 0 0 Z " fill="#FEFCFB" transform="translate(116,99)"/>
<path d="M0 0 C-1.07165569 3.21496708 -1.88376774 4.08462512 -4.375 6.25 C-4.98085937 6.79140625 -5.58671875 7.3328125 -6.2109375 7.890625 C-6.80132812 8.25671875 -7.39171875 8.6228125 -8 9 C-8.99 8.67 -9.98 8.34 -11 8 C-9.54712339 6.66072279 -8.08752741 5.32873153 -6.625 4 C-5.81289063 3.2575 -5.00078125 2.515 -4.1640625 1.75 C-2 0 -2 0 0 0 Z " fill="#463F6C" transform="translate(69,53)"/>
<path d="M0 0 C1.98 0.99 1.98 0.99 4 2 C4.1953125 8.0546875 4.1953125 8.0546875 4 10 C3.34 10.66 2.68 11.32 2 12 C2.04125 10.7625 2.0825 9.525 2.125 8.25 C2.13658291 4.98362038 1.8568702 2.7853053 0 0 Z " fill="#2A2A2A" transform="translate(99,191)"/>
<path d="M0 0 C0.99 0 1.98 0 3 0 C6 5.75 6 5.75 6 8 C2.66462511 6.88820837 1.36292656 5.52588702 -1 3 C-0.67 2.01 -0.34 1.02 0 0 Z " fill="#424141" transform="translate(158,182)"/>
<path d="M0 0 C0.99 0.33 1.98 0.66 3 1 C3.33 1.99 3.66 2.98 4 4 C2.37660195 5.70884005 0.70680947 7.37446717 -1 9 C-1.66 9 -2.32 9 -3 9 C-3 8.34 -3 7.68 -3 7 C-2.34 7 -1.68 7 -1 7 C-1 6.01 -1 5.02 -1 4 C-0.34 4 0.32 4 1 4 C0.67 2.68 0.34 1.36 0 0 Z " fill="#343434" transform="translate(52,171)"/>
<path d="M0 0 C1.5 1.3125 1.5 1.3125 3 3 C3 3.99 3 4.98 3 6 C3.66 6.33 4.32 6.66 5 7 C4.34 7 3.68 7 3 7 C3 7.99 3 8.98 3 10 C1 9 1 9 -0.1875 6.125 C-1 3 -1 3 0 0 Z " fill="#D8D8D8" transform="translate(63,39)"/>
<path d="M0 0 C0.33 0.99 0.66 1.98 1 3 C-0.98 3.33 -2.96 3.66 -5 4 C-5 4.66 -5 5.32 -5 6 C-5.66 6 -6.32 6 -7 6 C-7 4.68 -7 3.36 -7 2 C-4.69 1.34 -2.38 0.68 0 0 Z " fill="#3A3A3A" transform="translate(197,82)"/>
<path d="M0 0 C3.20395416 0 5.09399739 0.74335022 8 2 C8 2.66 8 3.32 8 4 C5.36 3.67 2.72 3.34 0 3 C0 2.01 0 1.02 0 0 Z " fill="#C1C0C1" transform="translate(31,74)"/>
<path d="M0 0 C0.66 0.33 1.32 0.66 2 1 C1.06409496 2.1055189 0.12620142 3.20935453 -0.8125 4.3125 C-1.33457031 4.92738281 -1.85664062 5.54226562 -2.39453125 6.17578125 C-3.87172469 7.85424679 -5.40039131 9.43882034 -7 11 C-6.68232368 5.59950264 -3.80003673 3.47662935 0 0 Z " fill="#372F61" transform="translate(58,62)"/>
<path d="M0 0 C0.33 0.66 0.66 1.32 1 2 C2.64363134 2.72159424 4.31050386 3.39351421 6 4 C6 4.99 6 5.98 6 7 C4.68 7.33 3.36 7.66 2 8 C1.67 7.34 1.34 6.68 1 6 C1.33 5.01 1.66 4.02 2 3 C1.34 3 0.68 3 0 3 C0 2.01 0 1.02 0 0 Z " fill="#D7D7D7" transform="translate(35,66)"/>
<path d="M0 0 C1.875 0.125 1.875 0.125 4 1 C7 5.17857143 7 5.17857143 7 8 C4 7 4 7 3 5.0625 C2.67 4.381875 2.34 3.70125 2 3 C1.01 2.34 0.02 1.68 -1 1 C-0.67 0.67 -0.34 0.34 0 0 Z " fill="#272526" transform="translate(151,186)"/>
<path d="M0 0 C0 1.65 0 3.3 0 5 C-1.65 5.33 -3.3 5.66 -5 6 C-5.33 4.68 -5.66 3.36 -6 2 C-1.125 0 -1.125 0 0 0 Z " fill="#BBBBBB" transform="translate(41,156)"/>
<path d="M0 0 C1.32 0.33 2.64 0.66 4 1 C3.67 2.65 3.34 4.3 3 6 C2.01 6 1.02 6 0 6 C0 4.02 0 2.04 0 0 Z " fill="#939292" transform="translate(190,153)"/>
<path d="M0 0 C1.20076172 0.31324219 1.20076172 0.31324219 2.42578125 0.6328125 C3.23402344 0.83648437 4.04226562 1.04015625 4.875 1.25 C5.48988281 1.41757812 6.10476562 1.58515625 6.73828125 1.7578125 C4.49528347 3.12179763 3.24757292 3.81543309 0.59765625 3.515625 C-1.35546875 2.9296875 -3.30859375 2.34375 -5.26171875 1.7578125 C-2.26171875 -0.2421875 -2.26171875 -0.2421875 0 0 Z " fill="#65618D" transform="translate(132.26171875,40.2421875)"/>
<path d="M0 0 C0.99 0.33 1.98 0.66 3 1 C2.34 3.64 1.68 6.28 1 9 C0.67 7.68 0.34 6.36 0 5 C-0.99 4.67 -1.98 4.34 -3 4 C-2.01 4 -1.02 4 0 4 C0 2.68 0 1.36 0 0 Z " fill="#242424" transform="translate(92,197)"/>
<path d="M0 0 C1.485 0.99 1.485 0.99 3 2 C3 2.66 3 3.32 3 4 C2.34 4 1.68 4 1 4 C1.33 5.65 1.66 7.3 2 9 C1.01 9 0.02 9 -1 9 C-0.67 6.03 -0.34 3.06 0 0 Z " fill="#747474" transform="translate(108,196)"/>
<path d="M0 0 C0.66 1.32 1.32 2.64 2 4 C2.99 4 3.98 4 5 4 C4.67 5.32 4.34 6.64 4 8 C3.01 8 2.02 8 1 8 C-0.35439668 5.29120665 -0.06501451 2.99066732 0 0 Z " fill="#8E8E8C" transform="translate(119,192)"/>
<path d="M0 0 C2.0625 2.3125 2.0625 2.3125 4 5 C3.67 5.99 3.34 6.98 3 8 C2.34 8 1.68 8 1 8 C1 7.01 1 6.02 1 5 C0.34 5 -0.32 5 -1 5 C-0.67 3.35 -0.34 1.7 0 0 Z " fill="#E4E4E4" transform="translate(98,191)"/>
<path d="M0 0 C0.99 0 1.98 0 3 0 C7 5.25714286 7 5.25714286 7 8 C6.01 7.67 5.02 7.34 4 7 C2.8125 4.4375 2.8125 4.4375 2 2 C1.34 2 0.68 2 0 2 C0 1.34 0 0.68 0 0 Z " fill="#303030" transform="translate(161,180)"/>
<path d="M0 0 C0.33 0 0.66 0 1 0 C1 1.98 1 3.96 1 6 C-0.65 6.66 -2.3 7.32 -4 8 C-4 7.01 -4 6.02 -4 5 C-2.68 4.34 -1.36 3.68 0 3 C0 2.01 0 1.02 0 0 Z " fill="#372F6C" transform="translate(139,130)"/>
<path d="M0 0 C0.33 0.66 0.66 1.32 1 2 C1.66 2.33 2.32 2.66 3 3 C0.69 3.66 -1.62 4.32 -4 5 C-4.66 3.68 -5.32 2.36 -6 1 C-3.03 1.495 -3.03 1.495 0 2 C0 1.34 0 0.68 0 0 Z " fill="#8C8C8C" transform="translate(26,108)"/>
<path d="M0 0 C-0.33 0.66 -0.66 1.32 -1 2 C-3.06640625 2.4140625 -3.06640625 2.4140625 -5.5625 2.625 C-6.38878906 2.69976562 -7.21507812 2.77453125 -8.06640625 2.8515625 C-9.02353516 2.92503906 -9.02353516 2.92503906 -10 3 C-10 2.34 -10 1.68 -10 1 C-3.375 -1.125 -3.375 -1.125 0 0 Z " fill="#2D2D2D" transform="translate(203,99)"/>
<path d="M0 0 C0.66 0 1.32 0 2 0 C1.67 2.31 1.34 4.62 1 7 C-0.32 7.33 -1.64 7.66 -3 8 C-2.34 7.67 -1.68 7.34 -1 7 C-1.020625 6.030625 -1.04125 5.06125 -1.0625 4.0625 C-1 1 -1 1 0 0 Z " fill="#E4E4E3" transform="translate(128,26)"/>
<path d="M0 0 C2.475 0.495 2.475 0.495 5 1 C5.33 2.32 5.66 3.64 6 5 C4.68 5.33 3.36 5.66 2 6 C2 4.35 2 2.7 2 1 C1.34 0.67 0.68 0.34 0 0 Z " fill="#D3D3D3" transform="translate(79,26)"/>
<path d="M0 0 C1.32 0 2.64 0 4 0 C4.33 0.66 4.66 1.32 5 2 C5.99 2.66 6.98 3.32 8 4 C5.69 4 3.38 4 1 4 C0.67 2.68 0.34 1.36 0 0 Z " fill="#D84939" transform="translate(76,160)"/>
<path d="M0 0 C0.66 0.33 1.32 0.66 2 1 C0.7508258 4.45925163 -0.67527795 7.14693203 -3 10 C-3.33 9.34 -3.66 8.68 -4 8 C-3.22265625 6.0546875 -3.22265625 6.0546875 -2.0625 3.875 C-1.49208984 2.78832031 -1.49208984 2.78832031 -0.91015625 1.6796875 C-0.60980469 1.12539062 -0.30945313 0.57109375 0 0 Z " fill="#4E4A78" transform="translate(179,142)"/>
<path d="M0 0 C0.66 0.99 1.32 1.98 2 3 C-1.465 4.485 -1.465 4.485 -5 6 C-4.75 4.125 -4.75 4.125 -4 2 C-1.9375 0.75 -1.9375 0.75 0 0 Z " fill="#3E3A70" transform="translate(119,133)"/>
<path d="M0 0 C2.31 1.98 4.62 3.96 7 6 C6.34 6.66 5.68 7.32 5 8 C2.5 5.6875 2.5 5.6875 0 3 C0 2.01 0 1.02 0 0 Z " fill="#BF3E2F" transform="translate(103,104)"/>
<path d="M0 0 C0.33 0.99 0.66 1.98 1 3 C0.01 3 -0.98 3 -2 3 C-2.33 4.65 -2.66 6.3 -3 8 C-3.33 8 -3.66 8 -4 8 C-4 5.69 -4 3.38 -4 1 C-2 0 -2 0 0 0 Z " fill="#3C3A6C" transform="translate(89,103)"/>
<path d="M0 0 C5.75 0.75 5.75 0.75 8 3 C5.39417629 3.93065133 4.35801776 4.14917407 1.75 3.0625 C1.1725 2.711875 0.595 2.36125 0 2 C0 1.34 0 0.68 0 0 Z " fill="#DDDDDD" transform="translate(30,82)"/>
<path d="M0 0 C0.33 0.66 0.66 1.32 1 2 C1.66 2.33 2.32 2.66 3 3 C-1.625 6 -1.625 6 -5 6 C-4.67 5.01 -4.34 4.02 -4 3 C-1.9375 2.3125 -1.9375 2.3125 0 2 C0 1.34 0 0.68 0 0 Z " fill="#CCCCCC" transform="translate(190,67)"/>
<path d="M0 0 C0 3 0 3 -1.875 5.1875 C-4 7 -4 7 -6 7 C-6 6.01 -6 5.02 -6 4 C-3 1.8125 -3 1.8125 0 0 Z " fill="#393939" transform="translate(180,54)"/>
<path d="M0 0 C3.34249629 0.59687434 5.46436342 1.73603877 8 4 C8 4.66 8 5.32 8 6 C4.74456771 5.65120368 3.98126893 4.97866739 1.75 2.4375 C1.1725 1.633125 0.595 0.82875 0 0 Z " fill="#313131" transform="translate(48,51)"/>
<path d="M0 0 C0.66 0 1.32 0 2 0 C1.67 2.97 1.34 5.94 1 9 C0.01 9 -0.98 9 -2 9 C-1.34 6.03 -0.68 3.06 0 0 Z " fill="#2C2C2C" transform="translate(136,26)"/>
<path d="M0 0 C0.66 0 1.32 0 2 0 C2.33 3.3 2.66 6.6 3 10 C2.34 10 1.68 10 1 10 C0.63883954 8.5225254 0.28624952 7.04295325 -0.0625 5.5625 C-0.25972656 4.73878906 -0.45695312 3.91507813 -0.66015625 3.06640625 C-0.82837891 2.04353516 -0.82837891 2.04353516 -1 1 C-0.67 0.67 -0.34 0.34 0 0 Z " fill="#3B3B3C" transform="translate(96,24)"/>
<path d="M0 0 C3.68754757 0.49831724 5.60490662 1.10067643 8 4 C7.21625 3.79375 6.4325 3.5875 5.625 3.375 C4.75875 3.25125 3.8925 3.1275 3 3 C2.34 3.66 1.68 4.32 1 5 C0.67 3.35 0.34 1.7 0 0 Z " fill="#CB3E28" transform="translate(90,153)"/>
<path d="M0 0 C1.32 0 2.64 0 4 0 C3.67 1.65 3.34 3.3 3 5 C2.01 5 1.02 5 0 5 C0 3.35 0 1.7 0 0 Z " fill="#AEAEAE" transform="translate(29,147)"/>
<path d="M0 0 C1.32 0 2.64 0 4 0 C4 1.65 4 3.3 4 5 C2.02 4.01 0.04 3.02 -2 2 C-1.34 1.34 -0.68 0.68 0 0 Z " fill="#EAE6F1" transform="translate(108,115)"/>
<path d="M0 0 C0.33 1.32 0.66 2.64 1 4 C1.99 4 2.98 4 4 4 C4 4.66 4 5.32 4 6 C2.35 6.33 0.7 6.66 -1 7 C-0.67 4.69 -0.34 2.38 0 0 Z " fill="#484477" transform="translate(140,105)"/>
<path d="M0 0 C0.33 0 0.66 0 1 0 C1 2.31 1 4.62 1 7 C-2.875 5.25 -2.875 5.25 -4 3 C-3.01 2.67 -2.02 2.34 -1 2 C-0.67 1.34 -0.34 0.68 0 0 Z " fill="#FDDFD8" transform="translate(110,103)"/>
<path d="M0 0 C2.475 0.99 2.475 0.99 5 2 C5 2.99 5 3.98 5 5 C4.01 5.33 3.02 5.66 2 6 C1.34 4.02 0.68 2.04 0 0 Z " fill="#79797A" transform="translate(191,91)"/>
<path d="M0 0 C0 0.66 0 1.32 0 2 C-5.41176471 6 -5.41176471 6 -8 6 C-6.56530686 1.69592058 -4.58010985 0 0 0 Z " fill="#282828" transform="translate(188,62)"/>
<path d="M0 0 C3.24271506 0.5590888 4.93057424 1.4132178 7 4 C7 4.66 7 5.32 7 6 C4.50638429 4.79618552 2.31856917 3.54571278 0 2 C0 1.34 0 0.68 0 0 Z " fill="#282828" transform="translate(45,54)"/>
<path d="M0 0 C0.99 0.33 1.98 0.66 3 1 C2.34 2.32 1.68 3.64 1 5 C1.66 5.66 2.32 6.32 3 7 C1.68 7.33 0.36 7.66 -1 8 C-1.625 5.125 -1.625 5.125 -2 2 C-1.34 1.34 -0.68 0.68 0 0 Z " fill="#424242" transform="translate(166,42)"/>
<path d="M0 0 C0.66 0 1.32 0 2 0 C1.25 2.875 1.25 2.875 0 6 C-1.98 6.99 -1.98 6.99 -4 8 C-2.68 5.36 -1.36 2.72 0 0 Z " fill="#2B2B2B" transform="translate(158,36)"/>
<path d="M0 0 C0.99 0 1.98 0 3 0 C1.8141763 3.37503669 0.72426311 5.64722731 -2 8 C-1.125 2.25 -1.125 2.25 0 0 Z " fill="#2C2C2C" transform="translate(72,187)"/>
<path d="M0 0 C0.33 0 0.66 0 1 0 C1 1.98 1 3.96 1 6 C-0.32 6 -1.64 6 -3 6 C-2.67 4.68 -2.34 3.36 -2 2 C-1.34 2 -0.68 2 0 2 C0 1.34 0 0.68 0 0 Z " fill="#E4332B" transform="translate(150,158)"/>
<path d="M0 0 C2.97 0.495 2.97 0.495 6 1 C6 1.66 6 2.32 6 3 C5.34 3 4.68 3 4 3 C4 3.66 4 4.32 4 5 C3.34 5 2.68 5 2 5 C1.34 3.35 0.68 1.7 0 0 Z " fill="#DE3C2B" transform="translate(131,155)"/>
<path d="M0 0 C2 3 2 3 2 5 C0.02 5.99 -1.96 6.98 -4 8 C-2.87548273 5.0280615 -1.77706209 2.66559313 0 0 Z " fill="#E2E2F0" transform="translate(177,150)"/>
<path d="M0 0 C0.66 0.33 1.32 0.66 2 1 C2 2.32 2 3.64 2 5 C0.68 5 -0.64 5 -2 5 C-2 3.68 -2 2.36 -2 1 C-1.34 0.67 -0.68 0.34 0 0 Z " fill="#CB372B" transform="translate(142,152)"/>
<path d="M0 0 C0.99 0 1.98 0 3 0 C2.67 1.65 2.34 3.3 2 5 C1.01 5 0.02 5 -1 5 C-0.67 3.35 -0.34 1.7 0 0 Z " fill="#EEEEEE" transform="translate(195,142)"/>
<path d="M0 0 C0 0.66 0 1.32 0 2 C-2.3125 2.625 -2.3125 2.625 -5 3 C-5.99 2.34 -6.98 1.68 -8 1 C-3.375 -1.125 -3.375 -1.125 0 0 Z " fill="#423E75" transform="translate(127,140)"/>
<path d="M0 0 C0.763125 0.309375 1.52625 0.61875 2.3125 0.9375 C4.18789677 1.67893593 6.08684652 2.36228217 8 3 C8 3.66 8 4.32 8 5 C4.62537285 4.45276317 2.91765 3.9451 0 2 C0 1.34 0 0.68 0 0 Z " fill="#272727" transform="translate(41,59)"/>
</svg>
