<?xml version="1.0" encoding="UTF-8"?>
<svg version="1.1" xmlns="http://www.w3.org/2000/svg" width="200" height="200">
<path d="M0 0 C66 0 132 0 200 0 C200 66 200 132 200 200 C134 200 68 200 0 200 C0 134 0 68 0 0 Z " fill="#FEFCFC" transform="translate(0,0)"/>
<path d="M0 0 C1.20527344 -0.00515625 2.41054687 -0.0103125 3.65234375 -0.015625 C7.0625 0.25 7.0625 0.25 12.0625 2.25 C12.0625 42.51 12.0625 82.77 12.0625 124.25 C17.3425 121.28 22.6225 118.31 28.0625 115.25 C28.7225 115.25 29.3825 115.25 30.0625 115.25 C30.01029297 113.35314453 30.01029297 113.35314453 29.95703125 111.41796875 C29.92889323 109.75782577 29.90159309 108.09766844 29.875 106.4375 C29.84986328 105.60412109 29.82472656 104.77074219 29.79882812 103.91210938 C29.78916016 103.10966797 29.77949219 102.30722656 29.76953125 101.48046875 C29.7538208 100.74207764 29.73811035 100.00368652 29.72192383 99.24291992 C30.15175833 96.72769478 31.13713062 95.85558484 33.0625 94.25 C36.28995524 95.66901662 38.43508107 97.37855765 40.91308594 99.87353516 C41.65355164 100.61415192 42.39401733 101.35476868 43.15692139 102.11782837 C44.33994843 103.31633926 44.33994843 103.31633926 45.546875 104.5390625 C46.36246887 105.35748627 47.17806274 106.17591003 48.01837158 107.01913452 C50.62114562 109.63309973 53.21687762 112.25393505 55.8125 114.875 C57.5763634 116.64889454 59.3406809 118.42233766 61.10546875 120.1953125 C65.42976136 124.54165142 69.7482933 128.89365081 74.0625 133.25 C72.0625 134.25 72.0625 134.25 69.8034668 133.52148438 C68.88218994 133.13283203 67.96091309 132.74417969 67.01171875 132.34375 C66.00302734 131.92996094 64.99433594 131.51617187 63.95507812 131.08984375 C61.82833077 130.200783 59.70330602 129.30758961 57.58007812 128.41015625 C56.06124023 127.78947266 56.06124023 127.78947266 54.51171875 127.15625 C53.58705811 126.76759766 52.66239746 126.37894531 51.7097168 125.97851562 C47.52671961 124.82735233 45.07817391 125.73732904 41.2668457 127.66113281 C40.26741943 128.25249023 39.26799316 128.84384766 38.23828125 129.453125 C37.12646484 130.10410156 36.01464844 130.75507813 34.86914062 131.42578125 C33.70414722 132.11671584 32.53943495 132.80812467 31.375 133.5 C6.14570725 148.38800789 6.14570725 148.38800789 -4.9375 147.25 C-11.56700824 145.39137001 -16.10055415 140.81875655 -19.9375 135.25 C-21.51585872 131.82989378 -22.18966985 129.13286118 -22.20492554 125.37467957 C-22.21345551 124.42015396 -22.22198547 123.46562836 -22.23077393 122.48217773 C-22.22986755 121.44673828 -22.22896118 120.41129883 -22.22802734 119.34448242 C-22.23474457 118.24469559 -22.24146179 117.14490875 -22.24838257 116.01179504 C-22.26737924 112.37630697 -22.2712877 108.74100337 -22.2734375 105.10546875 C-22.27986446 102.57587101 -22.28659274 100.04627403 -22.29360962 97.51667786 C-22.30558672 92.21316505 -22.30937572 86.90972088 -22.30810547 81.60620117 C-22.30690496 75.49005156 -22.32799215 69.37425534 -22.3595928 63.2581951 C-22.38897481 57.35981166 -22.39607944 51.46153535 -22.39488602 45.56307411 C-22.39724349 43.06048452 -22.40607515 40.5578922 -22.42155075 38.05534935 C-22.44119053 34.55117019 -22.4353795 31.04789553 -22.42333984 27.54370117 C-22.43457886 26.51433441 -22.44581787 25.48496765 -22.45739746 24.42440796 C-22.39436244 17.18850947 -21.00327358 11.73261122 -16.15625 6.2265625 C-15.5890625 5.78054687 -15.021875 5.33453125 -14.4375 4.875 C-13.8703125 4.41351563 -13.303125 3.95203125 -12.71875 3.4765625 C-8.36292983 0.47716002 -5.35542738 -0.02286202 0 0 Z " fill="#EA1E24" transform="translate(64.9375,27.75)"/>
<path d="M0 0 C2.81353938 1.40676969 3.20278813 3.15649555 4.53125 5.98828125 C5.25248047 7.51291992 5.25248047 7.51291992 5.98828125 9.06835938 C6.48714844 10.13892578 6.98601562 11.20949219 7.5 12.3125 C8.48944195 14.41282703 9.47901994 16.51308997 10.46875 18.61328125 C10.90638672 19.54954346 11.34402344 20.48580566 11.79492188 21.45043945 C12.19259766 22.29179443 12.59027344 23.13314941 13 24 C13.41439331 25.05960938 13.41439331 25.05960938 13.8371582 26.140625 C15.47831038 28.76481457 17.4254258 29.67282939 20.13671875 31.13671875 C21.18150391 31.70938477 22.22628906 32.28205078 23.30273438 32.87207031 C24.41970703 33.47116211 25.53667969 34.07025391 26.6875 34.6875 C28.98400059 35.9449218 31.27957823 37.20403075 33.57421875 38.46484375 C35.24170166 39.3772583 35.24170166 39.3772583 36.94287109 40.30810547 C41.26869092 42.7021265 45.50686221 45.22179953 49.72143555 47.80517578 C52.92621732 49.76661712 56.15484572 51.65935379 59.4375 53.48828125 C77.15103923 63.42961106 77.15103923 63.42961106 81 73 C82.09671991 81.51978204 81.21881058 89.00292803 76 96 C70.75406524 100.47601468 64.88176491 103.73678888 58.9375 107.1875 C57.30458008 108.14946289 57.30458008 108.14946289 55.63867188 109.13085938 C54.59130859 109.74123047 53.54394531 110.35160156 52.46484375 110.98046875 C51.512146 111.53629639 50.55944824 112.09212402 49.57788086 112.66479492 C47.25464492 113.86810749 45.57220955 114.64987321 43 115 C40.75924774 113.20697454 38.89039255 111.4713629 36.921875 109.41015625 C36.35043762 108.83164413 35.77900024 108.25313202 35.19024658 107.65708923 C33.36479174 105.80360836 31.55745926 103.93351774 29.75 102.0625 C28.51677877 100.80420672 27.28241714 99.54703003 26.046875 98.29101562 C23.01785691 95.2068192 20.00498272 92.10761192 17 89 C18.63778045 84.80374091 21.73323182 82.01323215 24.8828125 78.921875 C25.45707977 78.35043762 26.03134705 77.77900024 26.62301636 77.19024658 C28.4523581 75.37207055 30.28854193 73.56098508 32.125 71.75 C33.36894774 70.51608671 34.6124427 69.28171678 35.85546875 68.046875 C38.89842367 65.02593257 41.94753254 62.01132908 45 59 C41.71708087 56.23170062 38.5567288 54.10722982 34.6875 52.25 C33.80449219 51.82203125 32.92148438 51.3940625 32.01171875 50.953125 C31.01591797 50.48132813 31.01591797 50.48132813 30 50 C29.12674072 50.87849609 28.25348145 51.75699219 27.35375977 52.66210938 C24.12661732 55.9072925 20.89621503 59.14921355 17.66479492 62.39013672 C16.26415665 63.79581735 14.86441535 65.20239231 13.46557617 66.60986328 C11.45984836 68.62766096 9.4509628 70.64226631 7.44140625 72.65625 C6.81222794 73.2905896 6.18304962 73.9249292 5.5348053 74.57849121 C4.04206397 76.07142676 2.52367285 77.53864643 1 79 C0.67 79 0.34 79 0 79 C0 52.93 0 26.86 0 0 Z " fill="#EA1E24" transform="translate(95,21)"/>
<path d="M0 0 C3.41876639 1.7093832 4.201802 5.67517306 5.625 9.0625 C5.94984375 9.82111328 6.2746875 10.57972656 6.609375 11.36132812 C7.41213846 13.23837799 8.20683143 15.1188756 9 17 C8.34 17.33 7.68 17.66 7 18 C6.34 17.67 5.68 17.34 5 17 C4.67 17.66 4.34 18.32 4 19 C3.67 19 3.34 19 3 19 C2.67 36.82 2.34 54.64 2 73 C2.99 73 3.98 73 5 73 C5 72.01 5 71.02 5 70 C5.99 69.01 5.99 69.01 7 68 C9.125 68.375 9.125 68.375 11 69 C9.35718838 70.66964521 7.71067239 72.3356464 6.0625 74 C5.14597656 74.928125 4.22945313 75.85625 3.28515625 76.8125 C1 79 1 79 0 79 C0 52.93 0 26.86 0 0 Z " fill="#D22F35" transform="translate(95,21)"/>
<path d="M0 0 C0 3.59857954 -0.95830515 5.09451118 -3 8 C-3.66 8 -4.32 8 -5 8 C-6.25424359 29.38564704 -6.18760984 50.78132679 -6.18530273 72.19555664 C-6.1852 77.43360223 -6.19900407 82.67151566 -6.21607494 87.90952969 C-6.22720634 91.98371492 -6.22922181 96.05786785 -6.22869301 100.13206673 C-6.22986552 102.06443817 -6.23424591 103.99681065 -6.24202538 105.92916679 C-6.25187665 108.62141204 -6.24893026 111.31336479 -6.24291992 114.00561523 C-6.24853943 114.78646988 -6.25415894 115.56732452 -6.25994873 116.37184143 C-6.23003894 121.6726612 -5.79360177 126.97149411 -4 132 C-3.34 132.33 -2.68 132.66 -2 133 C-2.99 133 -3.98 133 -5 133 C-8.21601178 126.88478931 -8.43398557 121.70457266 -8.40405273 114.86743164 C-8.41434761 113.21731331 -8.41434761 113.21731331 -8.42485046 111.53385925 C-8.44310328 107.90915909 -8.43928299 104.28489237 -8.43359375 100.66015625 C-8.43815619 98.13341634 -8.44346195 95.60667767 -8.44947815 93.0799408 C-8.45840626 87.78834402 -8.45622423 82.49690424 -8.44604492 77.20532227 C-8.43456648 71.1038816 -8.44864043 65.00288064 -8.4754414 58.9014979 C-8.50033211 53.01270392 -8.50276585 47.12404573 -8.49632454 41.23519707 C-8.49617138 38.73819688 -8.50221148 36.24118821 -8.51461601 33.74421883 C-8.52953056 30.24980292 -8.5188442 26.75634916 -8.50170898 23.26196289 C-8.51621094 21.72262589 -8.51621094 21.72262589 -8.53100586 20.15219116 C-8.45328625 12.56452103 -6.86836304 7.18707005 -1.75 1.5 C-1.1725 1.005 -0.595 0.51 0 0 Z " fill="#D32A31" transform="translate(51,32)"/>
<path d="M0 0 C8.03714289 3.82921467 15.58748883 8.06805359 23 13 C22.68289062 13.58265625 22.36578125 14.1653125 22.0390625 14.765625 C20.63951811 17.77517159 20.37817248 20.7225052 20 24 C19.34 24 18.68 24 18 24 C17.9071875 24.8971875 17.9071875 24.8971875 17.8125 25.8125 C16.66061101 28.91373958 14.93240408 29.64108103 12 31 C11.34 30.67 10.68 30.34 10 30 C13.465 26.535 13.465 26.535 17 23 C15.8553125 22.1028125 15.8553125 22.1028125 14.6875 21.1875 C12.6516425 19.53040668 10.8021721 17.89702326 9 16 C9.639375 16.185625 10.27875 16.37125 10.9375 16.5625 C11.9584375 16.7790625 11.9584375 16.7790625 13 17 C13.33 16.67 13.66 16.34 14 16 C13.34 15.67 12.68 15.34 12 15 C12 14.34 12 13.68 12 13 C12.66 12.67 13.32 12.34 14 12 C13.38125 11.731875 12.7625 11.46375 12.125 11.1875 C10 10 10 10 8 7 C7.01 7 6.02 7 5 7 C4.34 7.66 3.68 8.32 3 9 C2.814375 8.1646875 2.814375 8.1646875 2.625 7.3125 C1.94023721 4.77887769 0.99061509 2.42821505 0 0 Z " fill="#E62126" transform="translate(123,57)"/>
<path d="M0 0 C6.03331362 4.98404168 11.5184171 10.41915303 17 16 C15 17 15 17 12.7409668 16.28735352 C11.81968994 15.90506592 10.89841309 15.52277832 9.94921875 15.12890625 C8.94052734 14.71962891 7.93183594 14.31035156 6.89257812 13.88867188 C4.76724495 13.00926832 2.64224105 12.12906853 0.51757812 11.24804688 C-0.49498047 10.83748047 -1.50753906 10.42691406 -2.55078125 10.00390625 C-3.47544189 9.62049072 -4.40010254 9.2370752 -5.3527832 8.84204102 C-8.06393545 7.97966307 -10.17533422 7.83617258 -13 8 C-13 7.34 -13 6.68 -13 6 C-8.45194365 5.82164485 -5.1205746 6.00214565 -1 8 C-1.33 7.01 -1.66 6.02 -2 5 C-1.01 4.67 -0.02 4.34 1 4 C0.67 2.68 0.34 1.36 0 0 Z " fill="#DC3339" transform="translate(122,145)"/>
<path d="M0 0 C1.98 0 3.96 0 6 0 C3.53656244 5.58379179 -0.97862545 7.96052785 -6 11 C-7.02673828 11.62841797 -7.02673828 11.62841797 -8.07421875 12.26953125 C-12.6764576 15 -12.6764576 15 -15 15 C-15 14.01 -15 13.02 -15 12 C-13.35 12 -11.7 12 -10 12 C-9.67 10.35 -9.34 8.7 -9 7 C-8.34 7 -7.68 7 -7 7 C-6.67 5.68 -6.34 4.36 -6 3 C-5.34 3 -4.68 3 -4 3 C-3.67 2.34 -3.34 1.68 -3 1 C-2.01 1.33 -1.02 1.66 0 2 C0 1.34 0 0.68 0 0 Z " fill="#E12A31" transform="translate(167,113)"/>
<path d="M0 0 C0.7425 0.309375 1.485 0.61875 2.25 0.9375 C4.85712052 2.06324174 4.85712052 2.06324174 7.1875 2.3125 C9 3 9 3 10.25 5.5625 C10.4975 6.366875 10.745 7.17125 11 8 C8.69 7.34 6.38 6.68 4 6 C3.50628906 6.5053125 3.01257813 7.010625 2.50390625 7.53125 C1.86324219 8.1809375 1.22257812 8.830625 0.5625 9.5 C-0.07558594 10.1496875 -0.71367188 10.799375 -1.37109375 11.46875 C-3 13 -3 13 -4 13 C-4 11.02 -4 9.04 -4 7 C-3.34 6.67 -2.68 6.34 -2 6 C-1.27306096 4.02111039 -0.60183749 2.02045442 0 0 Z " fill="#E6222D" transform="translate(121,65)"/>
<path d="M0 0 C6.9064141 3.34961084 13.57269512 6.79753142 20 11 C18.125 12.0390625 18.125 12.0390625 16 13 C13.25375516 12.14179849 11.94855308 10.94699408 9.9375 8.875 C8.09006673 6.65228929 8.09006673 6.65228929 5 7 C4.34 7.66 3.68 8.32 3 9 C2.814375 8.1646875 2.814375 8.1646875 2.625 7.3125 C1.94023721 4.77887769 0.99061509 2.42821505 0 0 Z " fill="#DD3238" transform="translate(123,57)"/>
<path d="M0 0 C0.33 0.99 0.66 1.98 1 3 C0.33613281 3.58007812 -0.32773438 4.16015625 -1.01171875 4.7578125 C-5.73205385 8.93375859 -10.15424345 13.00051649 -14 18 C-14.99 17.67 -15.98 17.34 -17 17 C-11.39 11.39 -5.78 5.78 0 0 Z " fill="#FFE0DF" transform="translate(117,78)"/>
<path d="M0 0 C3.875 1.75 3.875 1.75 5 4 C3.7934375 3.9690625 3.7934375 3.9690625 2.5625 3.9375 C0.06645115 3.70366379 0.06645115 3.70366379 -1 5 C-1.23678716 7.69235776 -1.42198025 10.36498156 -1.5625 13.0625 C-1.60568359 13.82111328 -1.64886719 14.57972656 -1.69335938 15.36132812 C-1.79973633 17.24065438 -1.90039934 19.12030244 -2 21 C-2.33 21 -2.66 21 -3 21 C-3.08086376 18.06195004 -3.1404283 15.12611925 -3.1875 12.1875 C-3.21263672 11.35412109 -3.23777344 10.52074219 -3.26367188 9.66210938 C-3.27333984 8.85966797 -3.28300781 8.05722656 -3.29296875 7.23046875 C-3.3086792 6.49207764 -3.32438965 5.75368652 -3.34057617 4.99291992 C-2.91074167 2.47769478 -1.92536938 1.60558484 0 0 Z " fill="#CF3A42" transform="translate(98,122)"/>
<path d="M0 0 C1.14926266 0.95421808 2.29430541 1.91352045 3.4375 2.875 C4.39462891 3.67550781 4.39462891 3.67550781 5.37109375 4.4921875 C7 6 7 6 8 8 C-2.55808656 4.92482916 -2.55808656 4.92482916 -7 3 C-3.98968256 2.06576355 -3.13349732 1.95550089 0 3 C0 2.01 0 1.02 0 0 Z " fill="#D44E52" transform="translate(131,154)"/>
<path d="M0 0 C-0.33 1.32 -0.66 2.64 -1 4 C-0.34 4.33 0.32 4.66 1 5 C0.01 5 -0.98 5 -2 5 C-2.33 5.99 -2.66 6.98 -3 8 C-4.98 7.01 -6.96 6.02 -9 5 C-2.87096774 0 -2.87096774 0 0 0 Z " fill="#DE2B31" transform="translate(95,143)"/>
<path d="M0 0 C0.99 0.33 1.98 0.66 3 1 C3 1.66 3 2.32 3 3 C3.99 3.33 4.98 3.66 6 4 C6 5.98 6 7.96 6 10 C4.82460004 9.07347299 3.65989423 8.13336613 2.5 7.1875 C1.52546875 6.40439453 1.52546875 6.40439453 0.53125 5.60546875 C-1 4 -1 4 -1 1 C-0.67 0.67 -0.34 0.34 0 0 Z " fill="#DF252F" transform="translate(121,114)"/>
<path d="M0 0 C1.32 0.66 2.64 1.32 4 2 C2.04480616 3.17192047 0.0857461 4.3373929 -1.875 5.5 C-2.96554688 6.1496875 -4.05609375 6.799375 -5.1796875 7.46875 C-8 9 -8 9 -10 9 C-9 6 -9 6 -6.9375 4.8125 C-6.298125 4.544375 -5.65875 4.27625 -5 4 C-5.33 3.34 -5.66 2.68 -6 2 C-4.35 2 -2.7 2 -1 2 C-0.67 1.34 -0.34 0.68 0 0 Z " fill="#DB3239" transform="translate(91,160)"/>
<path d="M0 0 C4.10958767 1.45044271 7.43258745 3.51110752 11 6 C9.35 7.98 7.7 9.96 6 12 C5.67 11.01 5.34 10.02 5 9 C5.66 9 6.32 9 7 9 C6.67 7.35 6.34 5.7 6 4 C4.02 3.34 2.04 2.68 0 2 C0 1.34 0 0.68 0 0 Z " fill="#FEE0E0" transform="translate(130,73)"/>
<path d="M0 0 C5.46875 4.39453125 5.46875 4.39453125 7 6 C7 6.99 7 7.98 7 9 C6.67 8.34 6.34 7.68 6 7 C5.01 7 4.02 7 3 7 C3 7.66 3 8.32 3 9 C2.34 9 1.68 9 1 9 C0.67 6.03 0.34 3.06 0 0 Z " fill="#DD343C" transform="translate(103,126)"/>
<path d="M0 0 C0.763125 0.20625 1.52625 0.4125 2.3125 0.625 C-0.05547991 3.24224095 -2.58350354 4.95361729 -5.6875 6.625 C-6.3475 6.625 -7.0075 6.625 -7.6875 6.625 C-7.6875 5.965 -7.6875 5.305 -7.6875 4.625 C-7.0275 4.625 -6.3675 4.625 -5.6875 4.625 C-5.6875 3.635 -5.6875 2.645 -5.6875 1.625 C-2.6875 -0.375 -2.6875 -0.375 0 0 Z " fill="#DC2F32" transform="translate(102.6875,154.375)"/>
<path d="M0 0 C2.5625 0.1875 2.5625 0.1875 4.5625 2.1875 C4.8925 3.1775 5.2225 4.1675 5.5625 5.1875 C2.1875 4.875 2.1875 4.875 -1.4375 4.1875 C-2.0975 3.1975 -2.7575 2.2075 -3.4375 1.1875 C-2.4375 0.1875 -2.4375 0.1875 0 0 Z " fill="#E71F23" transform="translate(125.4375,151.8125)"/>
<path d="M0 0 C0.66 0 1.32 0 2 0 C1.875 2.75 1.875 2.75 1 6 C-2.0625 8.375 -2.0625 8.375 -5 10 C-5.66 9.67 -6.32 9.34 -7 9 C-6.4946875 8.51789063 -5.989375 8.03578125 -5.46875 7.5390625 C-4.8190625 6.90742187 -4.169375 6.27578125 -3.5 5.625 C-2.8503125 4.99851562 -2.200625 4.37203125 -1.53125 3.7265625 C0.22117431 2.13524093 0.22117431 2.13524093 0 0 Z " fill="#D73239" transform="translate(140,78)"/>
<path d="M0 0 C0.66 0 1.32 0 2 0 C2.33 0.66 2.66 1.32 3 2 C3.99 2.66 4.98 3.32 6 4 C4.02 4.66 2.04 5.32 0 6 C-0.99 4.68 -1.98 3.36 -3 2 C-2.01 2 -1.02 2 0 2 C0 1.34 0 0.68 0 0 Z " fill="#DB2B30" transform="translate(138,130)"/>
<path d="M0 0 C0.33 0.66 0.66 1.32 1 2 C-0.0625 5.0625 -0.0625 5.0625 -2 8 C-5.1875 8.875 -5.1875 8.875 -8 9 C-7.04270084 7.87411986 -6.08412105 6.7493285 -5.125 5.625 C-4.59132813 4.99851562 -4.05765625 4.37203125 -3.5078125 3.7265625 C-2.38567993 2.44163349 -1.20628025 1.20628025 0 0 Z " fill="#D73037" transform="translate(130,90)"/>
<path d="M0 0 C1.28132813 0.00902344 2.56265625 0.01804687 3.8828125 0.02734375 C4.87023437 0.03894531 5.85765625 0.05054687 6.875 0.0625 C6.875 0.3925 6.875 0.7225 6.875 1.0625 C6.08996094 1.11148437 5.30492188 1.16046875 4.49609375 1.2109375 C-1.31522303 1.6245036 -6.603943 2.18032148 -12.125 4.0625 C-8.15658198 -0.08630066 -5.7503409 -0.05227583 0 0 Z " fill="#D3333C" transform="translate(65.125,27.9375)"/>
<path d="M0 0 C-0.1875 1.875 -0.1875 1.875 -1 4 C-3.63678659 5.49655455 -5.16532951 6.17595756 -8.16796875 5.54296875 C-8.77253906 5.36378906 -9.37710938 5.18460938 -10 5 C-8.71186658 4.16121545 -7.41936744 3.32913217 -6.125 2.5 C-5.40570313 2.0359375 -4.68640625 1.571875 -3.9453125 1.09375 C-2 0 -2 0 0 0 Z " fill="#FEE5E3" transform="translate(154,128)"/>
<path d="M0 0 C1 2 1 2 1.4375 4.375 C1.95607613 7.32861562 1.95607613 7.32861562 4 11 C1.69 9.02 -0.62 7.04 -3 5 C-1 1 -1 1 0 0 Z " fill="#CF3137" transform="translate(115,105)"/>
<path d="M0 0 C1.32 0.33 2.64 0.66 4 1 C1.69 3.31 -0.62 5.62 -3 8 C-3.66 7.67 -4.32 7.34 -5 7 C-5 6.34 -5 5.68 -5 5 C-4.01 5 -3.02 5 -2 5 C-2 4.01 -2 3.02 -2 2 C-1.34 1.34 -0.68 0.68 0 0 Z " fill="#D92D35" transform="translate(102,89)"/>
<path d="M0 0 C3.53586014 3.17320782 5.58578031 5.16743695 6 10 C5.01 10 4.02 10 3 10 C2.01 6.7 1.02 3.4 0 0 Z " fill="#D32E36" transform="translate(169,85)"/>
<path d="M0 0 C0.66 1.65 1.32 3.3 2 5 C0.329375 4.4740625 0.329375 4.4740625 -1.375 3.9375 C-4.80264476 2.62760669 -4.80264476 2.62760669 -7 4 C-7 3.01 -7 2.02 -7 1 C-2.25 0 -2.25 0 0 0 Z " fill="#DA2D32" transform="translate(130,68)"/>
<path d="M0 0 C0.66 0.33 1.32 0.66 2 1 C1.67 2.65 1.34 4.3 1 6 C-2.465 4.02 -2.465 4.02 -6 2 C-3 1 -3 1 -1 1 C-0.67 0.67 -0.34 0.34 0 0 Z " fill="#E02D33" transform="translate(138,72)"/>
<path d="M0 0 C0 3.59857954 -0.95830515 5.09451118 -3 8 C-3.66 8 -4.32 8 -5 8 C-5 8.66 -5 9.32 -5 10 C-5.66 9.67 -6.32 9.34 -7 9 C-2.85714286 2.57142857 -2.85714286 2.57142857 0 0 Z " fill="#D53B43" transform="translate(51,32)"/>
<path d="M0 0 C0.99 0.33 1.98 0.66 3 1 C4.1875 4.0625 4.1875 4.0625 5 7 C3.0625 6.3125 3.0625 6.3125 1 5 C0.25 2.375 0.25 2.375 0 0 Z " fill="#DA2B34" transform="translate(96,26)"/>
</svg>
